<svg width="141" height="48" fill="none" xmlns="http://www.w3.org/2000/svg" data-reactroot=""><path d="M50.544 41.268c.015.91.019 1.655-.197 2.384-.372 1.253-1.266 1.899-2.51 2.122-1.125.2-2.25.063-3.373-.03a23.814 23.814 0 01-2.768-.47c-1-.203-1.98-.052-2.95.2-1.38.361-2.73.84-4.084 1.276a13.656 13.656 0 01-3.831.582c-1.65.05-3.264-.226-4.88-.51a17.957 17.957 0 00-4.759-.12c-1.256.117-2.47.473-3.712.671-2.63.417-5.262.536-7.861-.194-1.287-.361-2.414-.996-3.168-2.151a4.618 4.618 0 01-.7-2.214c-.157-2.026.289-3.96.876-5.877.526-1.703 1.16-3.389 1.645-5.108.31-1.114.458-2.257.666-3.39.086-.445.136-.896.15-1.35.019-.776-.362-1.391-.853-1.951-1.181-1.35-2.516-2.546-3.786-3.805-1.24-1.226-2.485-2.445-3.461-3.903-.5-.753-.924-1.546-.983-2.47-.077-1.275.819-2.555 2.08-3.017a7.656 7.656 0 012.227-.391c1.212-.079 2.428-.055 3.64-.058 1.015 0 2.027-.067 3.04-.126.644-.038 1.04-.458 1.412-.903.413-.53.704-1.145.854-1.8.47-1.723 1.012-3.423 1.928-4.97 1.012-1.704 2.38-3.01 4.366-3.51C20.96-.17 22.338.02 23.695.46c.952.309 1.9.632 2.823 1.022a4.089 4.089 0 003.242.051A27.16 27.16 0 0133.261.397c1.596-.393 3.016 0 4.339.869 1.024.681 1.746 1.64 2.39 2.663.806 1.272 1.431 2.638 2.172 3.94.264.46.596.877.985 1.237.657.615 1.404.741 2.258.601 1.15-.189 2.266-.526 3.413-.737 1.079-.2 2.16-.3 3.235.026 1.382.418 2.522 1.842 2.544 3.194.012.852-.295 1.627-.682 2.372-.664 1.3-1.584 2.415-2.56 3.488-.977 1.073-2.023 2.074-2.958 3.183-.719.851-1.294 1.77-1.347 2.929-.042.739-.017 1.48.075 2.214.36 2.762 1.16 5.42 1.936 8.084.41 1.413.853 2.818 1.194 4.257.215.833.312 1.691.289 2.55zM6.695 44.882c.012.042.024.085.074.102l.034.068c.023.04.049.08.076.117.758.95 1.784 1.477 2.928 1.787 2.442.657 4.913.558 7.383.194 1.365-.203 2.712-.608 4.096-.729a19.15 19.15 0 014.225.06c1.124.153 2.232.417 3.365.51 2.016.17 4.003.079 5.945-.577 1.253-.422 2.506-.851 3.786-1.192 1.003-.266 2.019-.432 3.056-.233.886.2 1.78.356 2.682.465 1.075.097 2.149.207 3.229.083 1.33-.151 2.238-.884 2.518-2.057a.024.024 0 000-.029l.047-.17c.028-.17.067-.332.082-.5a12.745 12.745 0 00-.423-4.805c-.577-1.962-1.135-3.927-1.698-5.892-.359-1.25-.654-2.517-.944-3.786a.206.206 0 00-.036-.17c-.113-.795-.273-1.582-.324-2.384-.067-1.061-.09-2.12.368-3.116.366-.789.922-1.448 1.499-2.09.981-1.09 2.048-2.107 2.999-3.22.66-.767 1.302-1.548 1.776-2.45.38-.59.655-1.242.815-1.925.095-.367.11-.75.044-1.124-.247-1.259-1.401-2.394-2.663-2.648-1.065-.215-2.11-.075-3.15.15-1.07.23-2.123.545-3.214.68-.497.06-1.01.125-1.478-.122a4.195 4.195 0 01-1.52-1.333c-.663-.97-1.143-2.044-1.708-3.065-.565-1.022-1.172-2.073-1.97-2.967a5.936 5.936 0 00-3.32-1.936.547.547 0 00-.107-.034c-.815-.143-1.599.053-2.379.254-1.162.301-2.277.756-3.413 1.14a3.57 3.57 0 01-2.417-.023l-1.68-.603-.12-.041a.17.17 0 00-.171-.058 13.284 13.284 0 00-2.339-.758c-1.935-.432-3.715-.124-5.29 1.124-1.025.814-1.766 1.855-2.339 3.02a23.654 23.654 0 00-1.53 4.257 4.484 4.484 0 01-1.218 2.166c-.275.259-.567.528-.952.582-.512.074-1.036.092-1.557.12-1.437.073-2.877.052-4.316.063-.87-.013-1.74.06-2.596.22-.937.193-1.719.62-2.181 1.505a2.293 2.293 0 00-.354 1.73c.17.986.703 1.803 1.29 2.585 1.108 1.475 2.448 2.725 3.755 4.017 1.077 1.05 2.189 2.07 3.165 3.219.572.68.9 1.423.814 2.336-.084.952-.289 1.892-.43 2.825-.15 1.002-.471 1.96-.738 2.933-.469 1.38-.95 2.759-1.365 4.155-.476 1.55-.828 3.12-.82 4.751 0 .92.096 1.83.598 2.643.01.044.022.089.072.107l.04.069z" fill="#0A0A0A"></path><path d="M47.156 28.29c.29 1.268.586 2.536.944 3.785.563 1.966 1.121 3.93 1.698 5.893.452 1.564.599 3.2.434 4.82-.015.17-.055.341-.082.501-.113.03-.089.096-.048.17a.024.024 0 010 .03c-.107-.05-.123.047-.17.103-.194.246-.465.42-.77.493-.563.17-1.135.093-1.687.023a32.582 32.582 0 01-3.299-.642c-1.186-.274-2.369-.544-3.606-.48a9.15 9.15 0 00-2.321.46c-1.514.489-2.927 1.23-4.418 1.776a6.411 6.411 0 01-2.973.417c-1.133-.13-2.236-.439-3.345-.701-2.048-.486-4.08-1.088-6.204-1.228-1.018-.07-2.04-.04-3.052.092a29.36 29.36 0 00-3.174.681c-1.765.44-3.496 1.03-5.3 1.301-.944.141-1.869.04-2.659-.598-.087-.07-.17-.189-.32-.141l-.033-.068c0-.055 0-.106-.074-.102.014-.038 0-.06-.039-.07 0-.055 0-.1-.072-.107-.501-.813-.59-1.724-.597-2.643-.012-1.63.341-3.2.812-4.75.422-1.396.903-2.774 1.366-4.155.071 0 .094-.06.112-.11.238-.656.492-1.307.704-1.971a32.75 32.75 0 00.94-3.804c.145-.753.188-1.499-.11-2.24-.31-.766-.854-1.362-1.404-1.934-.502-.527-1.041-1.022-1.57-1.516-.468-.44-.939-.873-1.42-1.3-1.139-1.01-2.258-2.043-3.185-3.25C1.44 15.986.667 14.918.67 13.512c.462-.884 1.244-1.312 2.181-1.506a13.169 13.169 0 012.6-.226c1.438-.01 2.879.01 4.316-.063.52-.027 1.043-.046 1.557-.12.385-.054.682-.323.952-.582.6-.592 1.02-1.34 1.213-2.16.37-1.463.877-2.889 1.518-4.257.573-1.164 1.305-2.205 2.338-3.019C18.924.331 20.704.023 22.635.455c.801.18 1.584.434 2.338.758.04.07.105.066.171.058a.078.078 0 00.087.055.078.078 0 00.034-.014c0 .114.098.128.17.17a9.23 9.23 0 002.22.901 6.358 6.358 0 002.901.155 12.434 12.434 0 002.84-.94A9.72 9.72 0 0035.252.576 5.936 5.936 0 0138.576 2.5c.797.894 1.396 1.92 1.97 2.966.574 1.046 1.041 2.095 1.707 3.066.39.561.912 1.019 1.52 1.333.468.247.982.182 1.479.123 1.09-.13 2.143-.445 3.213-.682 1.04-.224 2.086-.364 3.151-.15 1.261.254 2.415 1.39 2.663 2.649.065.373.05.756-.045 1.124a6.16 6.16 0 01-.816 1.915c-.351.106-.6.37-.88.585-1.477 1.13-2.915 2.3-4.185 3.664a14.757 14.757 0 00-1.582 2.025c-.569.874-.881 1.803-.683 2.863.212 1.107.447 2.213.747 3.296.079.283.113.588.282.843a.151.151 0 00.04.17zm2.175 11.106c-.063-.77-.139-1.532-.418-2.268-.18-.47-.395-.923-.912-1.134a2.432 2.432 0 00-2.519.308c-.887.678-1.87 1.22-2.917 1.61-.737.27-1.475.536-2.203.827a3.52 3.52 0 00-1.342.828.92.92 0 00-.106 1.146c.191.284.497.356.811.407.833.133 1.657-.048 2.485-.085a11.43 11.43 0 012.035.052c.74.1 1.455.319 2.186.458.533.101 1.075.17 1.589-.06.882-.406 1.348-1.09 1.31-2.089zM4.067 15.058c.493-.044 1.219-.094 1.94-.17 1.265-.139 2.528-.288 3.79-.447.607-.076 1.222-.143 1.77-.453.303-.17.457-.418.411-.68-.055-.304-.3-.387-.551-.459-.623-.17-1.268-.17-1.907-.233-1.338-.131-2.681-.099-4.02-.138-.554-.015-1.115.012-1.672.032a2.261 2.261 0 00-1.604.724c-.342.358-.362.736-.062 1.124.415.548 1.007.72 1.905.7zM21.44.987c-1.241 0-2.177.274-2.871.851-.589.482-.556 1.238.07 1.676.54.376 1.157.458 1.787.422.933-.053 1.865-.13 2.794-.22.525-.049 1.056-.107 1.536-.362A.453.453 0 0025 2.725a2.004 2.004 0 00-1.315-1.343A5.957 5.957 0 0021.44.987zm7.51 16.41a32.768 32.768 0 004.359-.34c2.087-.311 4.12-.819 6.014-1.774.548-.278 1.104-.559 1.495-1.058.523-.666.306-1.437-.48-1.749a2.102 2.102 0 00-.636-.138c-.834-.06-1.64.123-2.45.266a49.11 49.11 0 01-5.206.7c-2.26.16-4.528.2-6.792.117-1.799-.07-3.596-.146-5.367-.51-.683-.14-1.366-.278-2.083-.229a.93.93 0 00-.908.877c-.077.615.238 1.022.673 1.383a6.152 6.152 0 001.968.986 27.98 27.98 0 009.407 1.47h.005zm22.771-7.291a.539.539 0 00-.326-.552 2.095 2.095 0 00-1.024-.194 6.75 6.75 0 00-2.425.49c-.563.229-1.106.492-1.536.946-.384.412-.287.827.235 1.037.061.024.124.043.188.057a4.233 4.233 0 001.681 0c.977-.17 1.903-.483 2.702-1.093.25-.189.471-.398.505-.691zm-14.678 1.551c.32-.05.683-.087.97-.368.225-.22.19-.412-.117-.524a1.444 1.444 0 00-1.1.093c-.204.09-.46.186-.44.487.016.181.312.317.687.312zm-3.557-2.27a.458.458 0 00-.293.774.458.458 0 00.308.137.475.475 0 00.46-.478.466.466 0 00-.475-.433zm-9.198.523a.484.484 0 00-.46-.453.458.458 0 00-.16.883c.055.02.114.03.173.026a.46.46 0 00.447-.456z" fill="#D27ABB"></path><path d="M6.805 45.054c.146-.048.232.072.319.142.79.636 1.707.739 2.659.597 1.804-.27 3.535-.861 5.3-1.3a29.36 29.36 0 013.174-.682 15.352 15.352 0 013.052-.092c2.125.14 4.15.742 6.204 1.228 1.11.262 2.219.57 3.345.701a6.41 6.41 0 002.975-.422c1.49-.547 2.902-1.287 4.417-1.776a9.154 9.154 0 012.322-.46c1.237-.065 2.42.206 3.606.48a32.63 32.63 0 003.3.637c.55.07 1.122.14 1.685-.024.305-.072.576-.246.77-.492.043-.056.058-.153.17-.104-.28 1.174-1.194 1.906-2.517 2.058-1.08.124-2.154.013-3.229-.084a26.475 26.475 0 01-2.681-.465c-1.038-.199-2.048-.032-3.057.233-1.28.341-2.533.765-3.786 1.193-1.942.655-3.925.74-5.944.577-1.134-.092-2.241-.356-3.366-.511a19.144 19.144 0 00-4.224-.06c-1.39.121-2.731.527-4.097.73-2.47.364-4.94.462-7.383-.195-1.144-.31-2.17-.836-2.927-1.786-.031-.04-.06-.08-.087-.123z" fill="#B35199"></path><path d="M.669 13.512c0 1.406.77 2.474 1.57 3.52.927 1.212 2.048 2.24 3.185 3.25.481.426.952.86 1.42 1.3.529.499 1.068.99 1.57 1.516.551.58 1.094 1.168 1.403 1.934.299.74.256 1.487.111 2.24a32.748 32.748 0 01-.94 3.804c-.212.664-.466 1.315-.704 1.97-.018.051-.04.11-.112.11.266-.971.587-1.93.737-2.932.142-.941.341-1.873.435-2.825.086-.913-.242-1.662-.814-2.336-.976-1.15-2.087-2.168-3.164-3.219-1.313-1.284-2.653-2.542-3.755-4.017-.587-.782-1.113-1.6-1.29-2.585a2.29 2.29 0 01.348-1.73z" fill="#B35198"></path><path d="M47.112 28.11c-.17-.255-.203-.56-.282-.842-.3-1.087-.536-2.19-.747-3.297-.203-1.06.109-1.99.682-2.863A14.775 14.775 0 0148.37 19.1c1.27-1.362 2.708-2.534 4.185-3.664.28-.215.529-.479.88-.584-.474.9-1.116 1.682-1.776 2.448-.958 1.114-2.018 2.13-3 3.22-.576.643-1.132 1.302-1.498 2.09-.459.996-.435 2.056-.368 3.117.053.802.213 1.588.319 2.384z" fill="#B25299"></path><path d="M35.273.578A9.72 9.72 0 0133.418 1.6c-.905.427-1.859.742-2.84.94-.966.173-1.96.12-2.901-.155a9.23 9.23 0 01-2.22-.9c-.07-.041-.17-.055-.17-.17l1.681.602a3.57 3.57 0 002.417.024C30.52 1.556 31.635 1.1 32.8.8c.78-.201 1.563-.397 2.379-.254a.55.55 0 01.095.032zM25.152 1.271c-.066 0-.131.012-.17-.058a.171.171 0 01.17.058z" fill="#B35198"></path><path d="M47.156 28.29a.151.151 0 01-.038-.17.202.202 0 01.038.17z" fill="#B25299"></path><path d="M50.101 43.456c-.04-.071-.064-.138.048-.17l-.048.17z" fill="#B35199"></path><path d="M25.273 1.312a.078.078 0 01-.12-.04l.12.04z" fill="#B35198"></path><path d="M6.584 44.704c.068 0 .077.053.072.107-.05-.023-.062-.063-.072-.107zM6.696 44.883c.077 0 .079.047.074.102-.05-.017-.062-.06-.074-.102zM6.661 44.81c.036.01.053.033.04.07-.02-.022-.04-.046-.04-.07z" fill="#B35199"></path><path d="M49.33 39.397c.04.997-.426 1.682-1.31 2.089-.512.237-1.057.16-1.59.06-.73-.14-1.445-.36-2.186-.459a11.439 11.439 0 00-2.034-.052c-.828.037-1.652.218-2.485.085-.314-.051-.62-.123-.81-.407a.92.92 0 01.105-1.146 3.519 3.519 0 011.341-.828c.73-.291 1.467-.557 2.204-.828a11.242 11.242 0 002.917-1.609A2.43 2.43 0 0148 35.994c.512.211.732.664.911 1.134.279.729.354 1.499.419 2.269zM4.067 15.058c-.898.02-1.49-.151-1.914-.7-.3-.393-.271-.766.07-1.123a2.259 2.259 0 011.613-.723c.557-.02 1.118-.047 1.671-.032 1.34.04 2.683 0 4.021.138.639.063 1.284.058 1.907.233.25.072.496.155.551.458.046.258-.107.503-.411.682-.548.31-1.162.376-1.77.453-1.26.157-2.524.306-3.79.446-.73.075-1.455.124-1.948.168zM21.439.986a5.957 5.957 0 012.247.402 2.01 2.01 0 011.315 1.344.45.45 0 01-.248.614c-.476.256-1.007.314-1.536.363-.928.09-1.86.17-2.794.22-.63.036-1.246-.046-1.787-.423-.626-.437-.659-1.192-.07-1.675.696-.57 1.632-.852 2.873-.845z" fill="#F7D4EE"></path><path d="M28.943 17.398a27.978 27.978 0 01-9.413-1.473 6.15 6.15 0 01-1.968-.986c-.435-.354-.75-.768-.672-1.382a.926.926 0 01.907-.877c.709-.05 1.395.088 2.083.228 1.771.363 3.569.44 5.368.51a63.66 63.66 0 006.79-.117 49.111 49.111 0 005.207-.698c.81-.143 1.616-.327 2.45-.266.218.013.432.06.635.138.787.312 1.004 1.083.482 1.75-.391.498-.948.78-1.495 1.057-1.895.955-3.926 1.462-6.015 1.774-1.444.211-2.9.325-4.36.342zm-9.934-1.948c2.529.944 5.185 1.5 7.88 1.649 2.717.16 5.443-.047 8.104-.615a16.257 16.257 0 003.89-1.29c.317-.115.617-.275.89-.474a1.114 1.114 0 00.494-1c-.037-.388-.363-.552-.683-.681a2.813 2.813 0 00-.853-.184c-.992-.077-1.966.08-2.934.247a45.843 45.843 0 01-6.581.593c-1.866.049-3.731.011-5.597-.096a27.175 27.175 0 01-4.079-.497c-.589-.124-1.195-.257-1.799-.153a.7.7 0 00-.614.696.991.991 0 00.24.736c.43.531 1.024.82 1.642 1.07z" fill="#090506"></path><path d="M51.72 10.106c-.03.293-.25.502-.493.68-.802.624-1.726.927-2.705 1.1a4.233 4.233 0 01-1.682 0 1.185 1.185 0 01-.187-.059c-.523-.21-.62-.625-.236-1.037.423-.453.966-.717 1.536-.945a6.75 6.75 0 012.419-.478c.352-.023.704.044 1.024.194a.541.541 0 01.324.545zM37.041 11.656c-.375 0-.67-.13-.682-.311-.02-.302.235-.397.438-.487a1.444 1.444 0 011.101-.094c.304.113.341.298.113.525-.287.28-.65.318-.97.367z" fill="#F7D4EE"></path><path d="M33.484 9.388a.468.468 0 01.475.432.473.473 0 01-.46.479.457.457 0 01-.015-.911zM24.287 9.91a.457.457 0 01-.447.456.443.443 0 01-.464-.429.456.456 0 01.45-.48.485.485 0 01.461.453z" fill="#090506"></path><path d="M38.878 15.195a16.251 16.251 0 01-3.885 1.289c-2.66.567-5.383.774-8.098.615a26.774 26.774 0 01-7.88-1.649.104.104 0 01.09-.093c.242-.038.483-.084.726-.116a76.2 76.2 0 013.68-.416c1.158-.095 2.315-.19 3.476-.2 1.818-.018 3.635-.059 5.453.035.763.04 1.536.078 2.292.11 1.195.05 2.39.21 3.584.307.195-.012.389.029.562.118z" fill="#D26B73"></path><path d="M38.878 15.194a1.081 1.081 0 00-.57-.118c-1.195-.097-2.39-.257-3.584-.306a240.41 240.41 0 01-2.292-.11c-1.818-.095-3.636-.054-5.453-.037-1.161.01-2.318.106-3.477.201-1.23.103-2.456.254-3.68.416-.242.032-.483.078-.725.116a.104.104 0 00-.09.093c-.619-.248-1.213-.538-1.643-1.07a.993.993 0 01-.24-.736.697.697 0 01.614-.697c.611-.104 1.21.029 1.8.153 1.344.269 2.708.435 4.078.498 1.866.107 3.731.144 5.597.095a45.846 45.846 0 006.581-.593c.968-.17 1.942-.323 2.934-.247.292.017.58.079.853.184.323.131.649.295.683.681a1.112 1.112 0 01-.495 1c-.273.2-.573.36-.89.477z" fill="#993044"></path><path d="M75.454 11.131c-3.8 0-7.027.132-9.75.364-.404.033-.505.1-.505.463v24.386c0 .298.101.397.505.43 2.824.232 6.085.331 9.75.331 3.934 0 6.725-.992 8.372-3.01 1.681-2.02 2.522-5.361 2.522-9.96 0-4.6-.84-7.942-2.522-9.96-1.647-2.018-4.438-3.044-8.372-3.044zm-.269 4.533c4.203 0 5.817 2.515 5.817 8.47 0 5.99-1.513 8.438-5.548 8.438h-4.976V15.664h4.707zM92.404 10.602c-1.883 0-2.959.96-2.959 2.647 0 1.687 1.076 2.68 2.959 2.68 1.85 0 2.891-.993 2.891-2.68 0-1.688-1.042-2.647-2.891-2.647zm-2.017 7.808c-.337 0-.505.166-.505.497V36.41c0 .364.168.53.504.53h3.968c.336 0 .504-.166.504-.53V18.907c0-.331-.168-.497-.504-.497h-3.968zM100.526 14.307c-.302.067-.47.232-.47.53v3.673h-1.984c-.37 0-.538.165-.538.496v2.647c0 .331.168.496.538.496h1.984v10.688c.134 2.515.773 3.54 2.353 3.97 1.11.298 1.715.298 3.161.298.907 0 1.849-.099 2.858-.297.369-.067.538-.265.538-.63v-2.812c0-.33-.202-.496-.572-.496h-1.379c-1.513 0-1.983-.33-1.983-1.687v-9.034h3.093c.37 0 .572-.165.572-.496v-2.647c0-.33-.202-.496-.572-.496h-3.093v-4.732c0-.43-.168-.596-.538-.496l-3.968 1.025zM113.299 14.307c-.303.067-.471.232-.471.53v3.673h-1.984c-.369 0-.537.165-.537.496v2.647c0 .331.168.496.537.496h1.984v10.688c.135 2.515.774 3.54 2.354 3.97 1.109.298 1.715.298 3.16.298.908 0 1.85-.099 2.858-.297.37-.067.538-.265.538-.63v-2.812c0-.33-.202-.496-.571-.496h-1.379c-1.513 0-1.984-.33-1.984-1.687v-9.034h3.094c.369 0 .571-.165.571-.496v-2.647c0-.33-.202-.496-.571-.496h-3.094v-4.732c0-.43-.168-.596-.538-.496l-3.967 1.025zM132.426 18.245c-3.463 0-5.783.629-6.892 1.886-1.11 1.224-1.682 3.739-1.682 7.544 0 3.805.572 6.32 1.682 7.577 1.109 1.225 3.429 1.853 6.892 1.853 3.463 0 5.783-.628 6.893-1.853 1.109-1.257 1.681-3.772 1.681-7.577 0-3.937-.336-6.055-1.681-7.51-1.345-1.49-3.262-1.92-6.893-1.92zm0 4.235c1.513 0 2.488.331 2.925 1.026.437.662.673 2.052.673 4.17 0 2.117-.236 3.507-.673 4.201-.437.662-1.412.993-2.925.993s-2.488-.33-2.925-.993c-.437-.694-.639-2.084-.639-4.202 0-2.117.202-3.507.639-4.169.437-.695 1.412-1.026 2.925-1.026z" fill="#535353"></path></svg>