<svg width="232" height="52" fill="none" xmlns="http://www.w3.org/2000/svg" data-reactroot=""><path d="M7.01 18.659a18.113 18.113 0 00-.644 4.717v.33a24.264 24.264 0 01-.644 5.723c-.888-.315-1.802-.954-2.675-2.06-2.297-2.91-1.533-7.575 1.299-8.673 1.071-.414 1.967-.327 2.667-.055a.096.096 0 00-.004.018z" fill="#A16552"></path><path d="M7.01 18.659a18.113 18.113 0 00-.644 4.717v.33a24.264 24.264 0 01-.644 5.723c-.888-.315-1.802-.954-2.675-2.06-2.297-2.91-1.533-7.575 1.299-8.673 1.071-.414 1.967-.327 2.667-.055a.096.096 0 00-.004.018z" fill="#F5DCB4"></path><path d="M49.326 27.37c-.871 1.104-1.787 1.743-2.675 2.06a24.317 24.317 0 01-.644-5.72v-.331a18.049 18.049 0 00-.65-4.735c.7-.272 1.597-.36 2.668.055 2.832 1.096 3.597 5.761 1.301 8.672z" fill="#A16552"></path><path d="M49.326 27.37c-.871 1.104-1.787 1.743-2.675 2.06a24.317 24.317 0 01-.644-5.72v-.331a18.049 18.049 0 00-.65-4.735c.7-.272 1.597-.36 2.668.055 2.832 1.096 3.597 5.761 1.301 8.672z" fill="#F5DCB4"></path><path d="M40.502 29.488a5.128 5.128 0 00-.564 4.4c.377 1.11.714 2.367.714 3.302-.002 6.838-6.477 12.374-14.466 12.374-7.99 0-14.467-5.536-14.467-12.374 0-.935.337-2.189.714-3.301a5.124 5.124 0 00-.563-4.4 7.956 7.956 0 01-1.25-4.265c0-4.538 3.861-8.22 8.631-8.22a8.922 8.922 0 014.396 1.147 5.135 5.135 0 005.078 0 8.911 8.911 0 014.395-1.145c4.763 0 8.633 3.68 8.633 8.219a7.944 7.944 0 01-1.251 4.264z" fill="#A16552"></path><path d="M40.502 29.488a5.128 5.128 0 00-.564 4.4c.377 1.11.714 2.367.714 3.302-.002 6.838-6.477 12.374-14.466 12.374-7.99 0-14.467-5.536-14.467-12.374 0-.935.337-2.189.714-3.301a5.124 5.124 0 00-.563-4.4 7.956 7.956 0 01-1.25-4.265c0-4.538 3.861-8.22 8.631-8.22a8.922 8.922 0 014.396 1.147 5.135 5.135 0 005.078 0 8.911 8.911 0 014.395-1.145c4.763 0 8.633 3.68 8.633 8.219a7.944 7.944 0 01-1.251 4.264z" fill="#F5DCB4"></path><path d="M18.817 38.719a.83.83 0 00-.826.938c.515 3.663 3.991 6.495 8.195 6.495 4.203 0 7.681-2.832 8.194-6.495a.832.832 0 00-.824-.938h-14.74z" fill="#4E3F3F"></path><path d="M21.427 44.789a8.99 8.99 0 009.519 0c-.598-2.068-2.507-1.591-4.764-1.591-2.256 0-4.158-.477-4.755 1.591z" fill="#E6646E"></path><path d="M49.004 17.168c-1.712-.664-3.07-.314-4.025.236a20.986 20.986 0 00-.805-2.02c-.221-.482-.46-.958-.717-1.428-2.62-4.792-7.025-8.77-12.077-10.452L31.277.783l-3.272 1.964-.394-.044a15.024 15.024 0 00-.726-.048l-.478-2.06-.14-.595c-.164 0-.323 0-.48.018-3.044.247-4.559 3.014-4.796 3.488-5.06 1.68-9.457 5.66-12.077 10.45-.257.469-.496.945-.717 1.428-.302.66-.571 1.334-.806 2.02l-.122-.068c-.947-.509-2.263-.802-3.902-.168-3.598 1.396-4.569 7.326-1.653 11.025 1.19 1.504 2.446 2.328 3.646 2.695a14.145 14.145 0 00-.37 3.227c0 7.059 5.205 13.131 12.664 15.8a24.677 24.677 0 005.415 1.27c.959.114 1.923.175 2.889.181h.229c11.706 0 21.195-7.724 21.195-17.25 0-1.018-.108-2.033-.325-3.027-.016-.069-.03-.137-.047-.204 1.207-.367 2.458-1.19 3.646-2.696 2.917-3.695 1.945-9.626-1.652-11.02zM7.01 18.66a18.113 18.113 0 00-.644 4.717v.33a24.264 24.264 0 01-.643 5.723c-.889-.315-1.803-.954-2.675-2.06-2.297-2.909-1.534-7.574 1.298-8.672 1.072-.415 1.968-.328 2.668-.056a.095.095 0 00-.004.018zm34.026 9.85a7.944 7.944 0 01-.534.98 5.128 5.128 0 00-.564 4.4c.378 1.11.715 2.366.715 3.3-.003 6.839-6.477 12.375-14.466 12.375-7.99 0-14.468-5.536-14.468-12.374 0-.935.338-2.189.715-3.301a5.124 5.124 0 00-.563-4.4 7.956 7.956 0 01-1.251-4.266c0-4.538 3.862-8.218 8.632-8.218a8.922 8.922 0 014.396 1.146 5.134 5.134 0 005.077 0 8.913 8.913 0 014.396-1.145c4.763 0 8.633 3.68 8.633 8.219a7.84 7.84 0 01-.718 3.284zm8.291-1.138c-.871 1.103-1.787 1.742-2.675 2.06a24.31 24.31 0 01-.644-5.722v-.33a18.048 18.048 0 00-.65-4.735c.7-.272 1.596-.36 2.668.055 2.832 1.096 3.596 5.761 1.301 8.672z" fill="#A16552"></path><path d="M22.592 32.535l-.017.038a.675.675 0 00.334.894l1.644.75c.338.156.739.006.893-.332l.018-.038a.675.675 0 00-.334-.894l-1.644-.75a.675.675 0 00-.894.332zM26.908 33.849l.017.037a.675.675 0 00.894.334l1.644-.751a.675.675 0 00.333-.894l-.017-.038a.674.674 0 00-.894-.333l-1.644.751a.674.674 0 00-.333.894zM18.753 28.506c-1.369 0-2.479-1.05-2.479-2.348v-.783c0-1.296 1.11-2.348 2.479-2.348 1.368 0 2.477 1.052 2.477 2.348v.783c0 1.298-1.109 2.348-2.477 2.348z" fill="#4E3F3F"></path><path d="M18.752 23.027v2.74a1.24 1.24 0 002.477 0v-.386c0-1.307-1.109-2.354-2.477-2.354z" fill="#5D5360"></path><path d="M18.752 25.375c.457 0 .827-.35.827-.783 0-.432-.37-.782-.827-.782-.456 0-.826.35-.826.782 0 .433.37.783.826.783z" fill="#fff"></path><path d="M33.618 28.506c-1.368 0-2.476-1.05-2.476-2.348v-.783c0-1.296 1.108-2.348 2.476-2.348 1.369 0 2.479 1.052 2.479 2.348v.783c0 1.298-1.113 2.348-2.479 2.348z" fill="#4E3F3F"></path><path d="M33.62 23.027v2.74a1.241 1.241 0 002.477 0v-.386c0-1.307-1.112-2.354-2.478-2.354z" fill="#5D5360"></path><path d="M33.62 25.375c.456 0 .826-.35.826-.783 0-.432-.37-.782-.826-.782-.457 0-.827.35-.827.782 0 .433.37.783.827.783z" fill="#fff"></path><path opacity="0.35" d="M26.407.6c-.555-.054-1.769.817-3.218 2.33-.362.377-.74.796-1.127 1.249-2.851 3.34-6.153 8.608-7.289 14.014-1.897 9.076-2.668 19.607.681 25.448 2.839 4.948 7.61 7.542 7.61 7.542a24.675 24.675 0 01-5.415-1.27C10.194 47.247 4.99 41.17 4.99 34.115a14.146 14.146 0 01.372-3.23c-1.206-.374-2.457-1.193-3.647-2.692C-1.202 24.5-.23 18.57 3.367 17.173c1.639-.634 2.961-.34 3.902.168l.122.068c.235-.686.504-1.36.806-2.02.222-.482.46-.958.717-1.428 2.62-4.795 7.018-8.774 12.077-10.455.237-.474 1.752-3.24 4.797-3.488.156-.018.314-.018.479-.018l.14.6z" fill="#4E3F3F"></path><path d="M71.417 38.91c-.64.247-1.79.37-3.447.37-1.658-.001-3.041-.153-4.148-.455-1.11-.302-1.665-.688-1.665-1.159 0-.538.998-3.974 2.993-10.307 1.996-6.334 3.14-9.982 3.431-10.943.113-.291 1.014-.532 2.704-.724a48.844 48.844 0 015.448-.286c1.94 0 3.013.337 3.218 1.01 4.238 14.081 6.357 21.234 6.357 21.458 0 .224-.134.448-.403.672-.628.494-1.872.74-3.733.74-3.97 0-5.999-.472-6.088-1.416l-.236-2.189h-3.233l-.168 1.884c-.046.65-.39 1.098-1.03 1.345zm3.716-9.62l-.504-6.05h-.74l-.572 6.05h1.816zM88.49 43.348v-21.39c0-.47.627-.953 1.883-1.446a11.032 11.032 0 014.07-.74c.672 0 1.199.08 1.58.235.381.156.617.314.707.471.09.157.257.83.504 2.018h.27c.043-.201.245-.515.605-.941.32-.39.687-.741 1.093-1.043.368-.27.901-.51 1.597-.724a8.37 8.37 0 012.438-.319 5.216 5.216 0 012.539.623c.762.415 1.329.896 1.699 1.446.408.64.704 1.346.875 2.085.18.661.304 1.336.369 2.018.034.504.051 1.234.051 2.188 0 .955-.033 1.896-.101 2.826-.07.954-.194 1.903-.37 2.843a9.911 9.911 0 01-.772 2.488 7.751 7.751 0 01-1.278 1.883c-1.03 1.122-2.544 1.683-4.541 1.682a5.248 5.248 0 01-1.9-.32c-.55-.212-.958-.465-1.227-.757-.561-.605-.887-1.143-.976-1.614l-.033-.336h-.27l.472 3.027v3.8c0 .247-.644.443-1.931.588a35.063 35.063 0 01-3.968.22c-1.357 0-2.258-.062-2.703-.185-.459-.126-.683-.332-.683-.626zm10.863-17.926c-.202-.762-.505-1.143-.908-1.143-.404 0-.695.224-.875.673v8.81c0 .585.303.877.908.876.785 0 1.178-1.738 1.178-5.214 0-1.905-.1-3.24-.303-4.002zM120.306 31.678c0 1.46.695 2.189 2.085 2.189.807 0 1.861-.275 3.162-.824 1.301-.55 1.985-.824 2.052-.824.425 0 .986.64 1.682 1.917.696 1.278 1.043 2.22 1.042 2.825 0 .875-.897 1.537-2.69 1.985a21.687 21.687 0 01-5.264.672c-1.717 0-3.152-.135-4.305-.403-1.154-.269-2.095-.612-2.825-1.03a8.171 8.171 0 01-3.146-3.261 8.672 8.672 0 01-.644-1.838 13.755 13.755 0 01-.336-3.06c0-4.081 1.065-6.896 3.195-8.443a9.659 9.659 0 013.532-1.648c1.3-.314 2.836-.471 4.608-.471 5.673 0 8.509 1.974 8.509 5.922 0 4.192-3.184 6.289-9.551 6.29l-1.106.002zm-.067-4.91v2.22a1.955 1.955 0 001.598-.773 2.917 2.917 0 00.623-1.883c0-1.345-.348-2.018-1.043-2.019-.785 0-1.178.817-1.178 2.454zM150.946 37.867c-.674.493-1.61.902-2.809 1.227-1.199.324-2.744.487-4.634.487a29.743 29.743 0 01-5.4-.47c-1.704-.314-2.926-.661-3.666-1.042-.74-.381-1.11-.752-1.11-1.111.009-1.324.19-2.64.538-3.918.358-1.357.784-2.035 1.279-2.035.085 0 1.016.303 2.791.909 1.774.606 3.109.906 4.002.901.898 0 1.481-.095 1.75-.286a.955.955 0 00.403-.824c0-.36-.247-.679-.741-.959a8.565 8.565 0 00-1.85-.739 16.556 16.556 0 01-2.403-.925 18.142 18.142 0 01-2.409-1.34 5.758 5.758 0 01-1.85-2.102 6.403 6.403 0 01-.74-3.11c0-4.978 2.971-7.467 8.912-7.467 2.22 0 4.137.14 5.752.42 1.616.28 2.753.594 3.413.942.662.344.993.687.993 1.03 0 1.166-.275 2.422-.824 3.767-.549 1.346-1.082 2.018-1.598 2.018-.09 0-.381-.101-.874-.303-1.48-.65-2.708-.975-3.683-.976-.975 0-1.636.089-1.984.27a.868.868 0 00-.521.824c0 .37.246.673.739.908.589.272 1.203.487 1.833.644.819.224 1.618.516 2.388.875.844.382 1.649.844 2.405 1.379.74.526 1.357 1.271 1.85 2.236.492.965.739 2.086.74 3.364a6.705 6.705 0 01-1.043 3.665 6.412 6.412 0 01-1.649 1.74zM181.854 38.472c-.292.538-1.811.807-4.557.807-2.747 0-4.176-.269-4.289-.807l-1.143-6.121h-.471l-1.076 6.121c-.068.538-2.03.807-5.886.807-1.076 0-1.788-.062-2.136-.185a1.187 1.187 0 01-.723-.622c-4.17-10.246-6.255-15.638-6.256-16.177 0-.539.812-1.094 2.439-1.665 1.503-.55 3.09-.84 4.691-.858 1.928 0 2.926.515 2.994 1.545l1.143 9.215h.403l.405-7.432c.022-.56.594-1.053 1.714-1.48a9.534 9.534 0 013.398-.645c1.143 0 2.001.14 2.575.42.573.28.87.623.89 1.03l.37 8.11h.371l1.108-8.65c.067-.538.824-1.025 2.27-1.462 1.446-.437 2.718-.655 3.817-.656 1.099 0 1.963.157 2.59.47 1.03.493 1.545 1.077 1.545 1.75 0 .067-1.015 2.803-3.044 8.206-2.028 5.403-3.076 8.163-3.142 8.28zM195.105 39.581c-2.04 0-3.643-.482-4.809-1.446-.471-.404-.881-.998-1.228-1.783-.348-.784-.522-1.701-.522-2.752a4.99 4.99 0 01.757-2.758 5.55 5.55 0 011.84-1.821 10.384 10.384 0 012.522-1.043 18.988 18.988 0 014.809-.572h1.111c0-.919-.314-1.569-.942-1.95-.269-.157-.679-.235-1.228-.235-.549 0-1.211.145-1.984.436a12.7 12.7 0 00-1.931.892c-.515.303-.862.454-1.043.453-.404 0-.953-.532-1.648-1.597-.694-1.065-1.041-2.035-1.042-2.91 0-.29.415-.672 1.245-1.143.829-.471 2.001-.903 3.514-1.295a17.623 17.623 0 014.422-.588c1.248-.018 2.495.1 3.717.352.884.181 1.742.47 2.557.859.648.326 1.22.785 1.681 1.345.397.469.746.975 1.043 1.513.264.552.438 1.143.515 1.75.171 1.01.25 2.035.235 3.06V38.47c0 .248-.601.444-1.802.589a29.338 29.338 0 01-3.565.219c-1.178 0-1.941-.034-2.288-.1-.347-.069-.554-.146-.621-.236a1.222 1.222 0 01-.169-.471l-.269-1.911h-.269c-.564 2.013-2.1 3.02-4.608 3.02zm4.506-5.583v-3.934a1.675 1.675 0 00-1.416.739 2.8 2.8 0 00-.538 1.682c0 1.479.336 2.219 1.009 2.22.249.014.495-.064.69-.22a.642.642 0 00.256-.487h-.001zM211.719 43.348v-21.39c0-.47.628-.953 1.883-1.446a11.04 11.04 0 014.071-.74c.672 0 1.198.08 1.581.235.382.156.615.314.705.471.09.157.258.83.505 2.018h.269c.045-.201.247-.515.605-.941a6.29 6.29 0 011.093-1.043c.371-.27.903-.51 1.598-.724a8.372 8.372 0 012.438-.319 5.216 5.216 0 012.54.623c.762.415 1.328.896 1.698 1.446a6.6 6.6 0 01.874 2.085c.182.66.306 1.336.371 2.018.033.504.05 1.234.05 2.188 0 .954-.034 1.896-.1 2.826a25.888 25.888 0 01-.371 2.843 9.825 9.825 0 01-.773 2.488 7.732 7.732 0 01-1.277 1.883c-1.03 1.122-2.543 1.682-4.54 1.682a5.235 5.235 0 01-1.9-.32c-.55-.212-.959-.465-1.229-.757-.56-.605-.885-1.143-.975-1.614l-.034-.336h-.269l.471 3.027v3.8c0 .247-.643.443-1.931.588a35.091 35.091 0 01-3.969.22c-1.357 0-2.258-.062-2.703-.185-.457-.126-.681-.332-.681-.626zm10.864-17.926c-.202-.762-.502-1.143-.901-1.143s-.691.224-.876.673v8.81c0 .585.303.877.909.876.784 0 1.176-1.738 1.177-5.214-.004-1.905-.107-3.24-.309-4.002z" fill="#A16552"></path></svg>