<svg id="oec_svg__\u56FE\u5C42_1" data-name="\u56FE\u5C42 1" xmlns="http://www.w3.org/2000/svg" viewBox="0 0 2596.58 1084" data-reactroot=""><defs><style>.oec_svg__cls-9{fill:#1a1a1a}</style></defs><path d="M572.22 503.92a119 119 0 0056.66 0 119.23 119.23 0 0187.37-87.36 119.12 119.12 0 10-231.39 0 119.22 119.22 0 0187.36 87.36z" fill="#7abdf7"></path><path d="M628.88 560.58a119 119 0 00-56.66 0 119.22 119.22 0 01-87.36 87.36 119.11 119.11 0 10231.39 0 119.23 119.23 0 01-87.37-87.36z" fill="#0d74f5"></path><path d="M744.57 413.14a119.09 119.09 0 00-28.32 3.42 119.26 119.26 0 01-87.37 87.36 119 119 0 000 56.66 119.25 119.25 0 0187.37 87.36 119.11 119.11 0 1028.32-234.8z" fill="#4494f7"></path><path d="M572.22 560.58a119 119 0 000-56.66 119.25 119.25 0 01-87.36-87.36 119.11 119.11 0 100 231.38 119.24 119.24 0 0187.36-87.36z" fill="#005cf4"></path><path d="M628.88 503.92a119.26 119.26 0 0087.37-87.36 119.23 119.23 0 00-87.37 87.36z" fill="#186ef9"></path><path d="M628.88 560.58a119.23 119.23 0 0087.37 87.36 119.25 119.25 0 00-87.37-87.36z" fill="#0246f2"></path><path d="M572.22 503.92a119.22 119.22 0 00-87.36-87.36 119.25 119.25 0 0087.36 87.36z" fill="#0046f8"></path><path d="M572.22 560.58a119.24 119.24 0 00-87.36 87.36 119.22 119.22 0 0087.36-87.36z" fill="#0729f1"></path><path class="oec_svg__cls-9" d="M953.21 532.25c0-119.38 88.8-210.36 208.7-210.36s208.71 92.11 208.71 210.36c0 119.38-89.37 210.36-209.27 210.36s-208.14-89.82-208.14-210.36zm338.79 0c0-77.65-54.3-136.76-130.09-136.76-76.35 0-130.65 59.11-130.65 136.76 0 78.81 54.3 136.76 130.65 136.76C1237.7 669 1292 611.06 1292 532.25zM1435.54 329.43h254.4v66.64h-177.33V496.9h168.61V563h-168.61v105.43h177.33v66.64h-254.4zM1756.38 532.25c0-119.38 86-210.36 207-210.36 101.8 0 173.07 64.33 193.43 151.25h-81.45c-14.7-46.94-57.69-77.65-112-77.65-74.66 0-129 58.53-129 136.76 0 79.39 54.3 136.76 129 136.76 53.73 0 97.28-30.13 113.12-76.49h82.57c-19.23 87.5-94.45 150.09-196.26 150.09-121 0-206.41-89.82-206.41-210.36z"></path></svg>