<svg id="okc-logo_svg__\u56FE\u5C42_1" data-name="\u56FE\u5C42 1" xmlns="http://www.w3.org/2000/svg" viewBox="0 0 1232.57 343.65" data-reactroot=""><defs><style></style></defs><path d="M642.25 397.86c.24-12.66.28-25.32.8-38a145 145 0 016.31-36.83c11.43-37.18 36.37-60.4 73.66-70.51 17.52-4.75 35.43-5.77 53.51-4.43a135 135 0 0131.86 5.81q53 17.11 68.57 70.66A166.73 166.73 0 01883 362v1.5c0 22.65.24 45.31-.07 68a143.45 143.45 0 01-6.81 41.26c-11 34.89-34.34 57.45-68.89 68.67a133.67 133.67 0 01-36.33 6.14c-12.51.48-25 .16-37.35-2a120.37 120.37 0 01-30.89-9.57c-24.19-11.47-40.94-29.82-50.44-54.8a146.87 146.87 0 01-8.31-35.4 267.17 267.17 0 01-1.44-29.93v-18zm185.79.71h.14v-23a140.63 140.63 0 00-2.18-25.32 84.05 84.05 0 00-8.74-25.91c-7.4-13.4-18.5-22.09-33.32-25.86a84.48 84.48 0 00-41.05-.09c-16.78 4-28.77 14-36 29.7a83.31 83.31 0 00-5.87 18 141.83 141.83 0 00-3 28.76v43a166.44 166.44 0 001.09 20.94c1.21 9.8 3.39 19.33 7.67 28.3 6.6 13.85 17.15 23.17 31.85 27.57a84.72 84.72 0 0047.32.6c14.75-4 25.63-13.06 32.68-26.65a72 72 0 005.37-13.96 106.54 106.54 0 004-26.6c.19-9.82 0-19.65 0-29.48zM1101.6 253.16c22.51 0 45.16-.06 67.81.08a6.26 6.26 0 011.61.59c-1.18 2.25-3 3.69-4.49 5.39-1.65 1.87-3.39 3.67-5.09 5.51l-4.74 5.14-4.76 5.14-5.09 5.5-4.74 5.14-4.76 5.14c-1.7 1.83-3.39 3.67-5.09 5.51l-4.75 5.14-4.75 5.13c-1.7 1.84-3.39 3.68-5.09 5.51s-3.17 3.42-4.75 5.14-3.17 3.43-4.75 5.14-3.17 3.42-4.75 5.14l-5.1 5.5-4.74 5.15-4.76 5.13-5.08 5.51-4.76 5.14-4.75 5.13-5.08 5.52-4.87 5.3c3.78 6.13 7.83 11.8 11.68 17.6s7.62 11.34 11.43 17l11.7 17.43 11.45 17 11.7 17.42 11.44 17 11.71 17.43 11.44 17 11.71 17.42c3.8 5.65 7.59 11.31 11.32 16.88-1.19 1.66-2.64 1.11-3.87 1.12q-29 .06-58 0h-2a3.38 3.38 0 01-3.33-1.75c-.78-1.27-1.64-2.5-2.46-3.76q-39.66-61.25-79.33-122.49c-1.07-1.66-2.2-3.29-3.48-5.2a19.64 19.64 0 00-2.45 1.89c-15 16.1-29.92 32.26-45 48.3-1.83 1.95-2 4-2 6.38v70.48c0 1.81-.06 3.62-.09 5.65a27.8 27.8 0 01-3.63.48h-47.49a35.68 35.68 0 01-3.61-.41c-.08-1.68-.21-3.14-.22-4.61-.51-76.36-.17-280.15.53-284.66 5.84-.75 11.8-.25 17.73-.34s12 0 18 0h18.16a26.29 26.29 0 01.59 3.08c.09 1.5 0 3 0 4.5v131.4c1.81.55 2.25-.85 2.94-1.63q17.68-20.07 35.3-40.19l81.45-92.79c1.29-1.38 2.53-2.72 4-4.35zM1421.59 349.8a17.23 17.23 0 01-2.08.43c-7.11.4-48.4.08-52.25-.42-.13-.83-.32-1.76-.43-2.7-.42-3.63-.55-7.33-1.27-10.9-3-14.84-11.56-25.56-24.83-32.64a63.86 63.86 0 00-23.35-6.87 102.81 102.81 0 00-29.87.79 66.24 66.24 0 00-14.34 4.25 52.22 52.22 0 00-25.3 22.51 79.92 79.92 0 00-8.85 24.82 115.4 115.4 0 00-2.22 19.34c-.49 21-.71 42 .17 63a95.49 95.49 0 004.79 26c6.83 20.72 20.79 33.68 42.1 38.49a97.06 97.06 0 0045.06-.46 53.56 53.56 0 0018.12-8.17 44 44 0 0019.06-31.51c.46-3.45.71-6.92 1.07-10.55a23 23 0 012.49-.41c11.13-.46 46.87-.14 51.2.47a11.27 11.27 0 01.45 2.2 105.93 105.93 0 01-6.61 39.18c-6.39 16.69-17.2 29.9-31.83 40.08a110.22 110.22 0 01-42.12 17.58 179.53 179.53 0 01-75.38-.76 111 111 0 01-35.8-14.89c-20.81-13.38-34.18-32.29-41.46-55.72a159 159 0 01-6.26-32.81c-.73-8-.87-16-.86-24v-44a181.54 181.54 0 014-37.69 126 126 0 016.4-21c10.79-26.6 29.84-44.92 56.22-55.77 12.73-5.23 26.07-7.95 39.75-9.22a190.3 190.3 0 0136.43.1c14.84 1.46 29.24 4.7 42.89 10.88a103.27 103.27 0 0124.06 15.07c15.94 13.42 25.44 30.55 29.19 50.94a110.7 110.7 0 011.91 20.87c.02 1.1-.15 2.23-.25 3.49zM475.49 569.2H430c-1.33 0-2.67.06-4 0-4.37-.32-7-2.88-7.48-7.25a27.26 27.26 0 01-.07-3V465a23.8 23.8 0 01.15-3.49 7.56 7.56 0 016.94-6.75 29 29 0 013.49-.09h93.46a29 29 0 013.49.09 7.71 7.71 0 017 7.28c.1 1.15 0 2.33 0 3.49v93c0 1.16.06 2.34 0 3.5a7.54 7.54 0 01-7 7.18c-1.32.13-2.67.06-4 .06zM189.32 282.49v-45.48a31.94 31.94 0 01.14-4.49 7.6 7.6 0 017.34-6.89c1-.09 2 0 3 0h93.46a34 34 0 013.5 0 7.69 7.69 0 017.12 7.14 30 30 0 01.06 3v94c0 1 0 2-.05 3a7.7 7.7 0 01-6.91 7.36 19.84 19.84 0 01-3 .13h-94.44a21.24 21.24 0 01-3-.11 7.68 7.68 0 01-7.13-7.16 39.49 39.49 0 01-.09-4.49v-46.01zM304 512.17v46a38.09 38.09 0 01-.07 4 7.54 7.54 0 01-7.21 7c-1 .09-2 0-3 0h-97a7.58 7.58 0 01-7.29-6.94 27 27 0 01-.1-3.49v-93.46a27.08 27.08 0 01.09-3.49 7.73 7.73 0 017.22-7.07 31.41 31.41 0 013.5-.07h92.95a34 34 0 013.5.06 7.72 7.72 0 017.31 7.5c.11 1.32.05 2.66.05 4zM533.05 282.87v45.48c0 1.33.05 2.67 0 4-.26 4.35-2.78 7.15-7 7.75a29.46 29.46 0 01-4 .12h-92.52a26.8 26.8 0 01-4.48-.21 7.34 7.34 0 01-6.42-6.67 27.78 27.78 0 01-.16-4v-93a29.31 29.31 0 01.15-4 7.48 7.48 0 016.91-6.75 31.41 31.41 0 013.5-.07h93.46a26.53 26.53 0 014 .13 7.56 7.56 0 016.46 6.67 37.47 37.47 0 01.1 4.5v46.05zM361.07 454.64h-46c-1.33 0-2.67.06-4-.06a7.44 7.44 0 01-7.07-7.1c-.1-1.16-.05-2.33-.05-3.5V351a38.09 38.09 0 01.08-4 7.38 7.38 0 016.88-6.73c1.32-.13 2.66-.08 4-.08h92.45a39.54 39.54 0 014.49.12 7.09 7.09 0 016.39 6 22 22 0 01.27 4v93.94a23 23 0 01-.24 4 7.21 7.21 0 01-6.76 6.26c-1.49.14-3 .08-4.49.08z" transform="translate(-189.31 -225.57)"></path></svg>