<svg width="182" height="41" fill="none" xmlns="http://www.w3.org/2000/svg" data-reactroot=""><path d="M69.505 11.47v-.738h-4.282l-3.31 5.26c-.301.49-.611.993-.905 1.554a26.218 26.218 0 00-.916-1.569l-3.332-5.245h-4.283v.738l6.47 9.965v7.285h4.094v-7.285l6.453-9.94.01-.025z" fill="#535353"></path><path d="M73.111 15.754a6.653 6.653 0 00.287 13.303 7.388 7.388 0 004.857-1.73l.36-.289-1.774-2.698-.442.383a3.894 3.894 0 01-2.743.97 2.98 2.98 0 01-3.034-1.852h8.132l.05-.453c.062-.468.1-.94.11-1.413-.002-3.78-2.28-6.221-5.803-6.221zm-.052 3.338a1.987 1.987 0 012.098 1.8H70.63a2.465 2.465 0 012.425-1.804l.004.003zM80.464 10.563v18.155h3.887l-.028-18.155h-3.86zM86.718 10.563v18.155h3.887l-.028-18.155h-3.86zM98.98 15.754a6.402 6.402 0 00-6.744 6.638 6.757 6.757 0 106.744-6.638zm0 9.755a3.129 3.129 0 112.856-3.118 2.83 2.83 0 01-1.695 2.885 2.835 2.835 0 01-1.161.233zM117.637 21.575l-.055.157a7.435 7.435 0 00-.131-.244l-2.382-4.791-.027-.057h-1.228l-2.409 4.847-.098.197-.037-.11-1.918-5.507h-3.896c0 .437.078.87.231 1.279l4.281 11.478h1.529l2.944-5.867 2.922 5.867h1.555l4.28-11.457c.149-.399.228-.82.232-1.247v-.052h-3.876l-1.917 5.507zM148.357 15.754a6.4 6.4 0 00-6.744 6.638 6.758 6.758 0 106.744-6.638zm0 9.755a3.132 3.132 0 01-3.079-1.733 3.127 3.127 0 013.94-4.3 3.13 3.13 0 011.995 2.915 2.846 2.846 0 01-1.695 2.885 2.833 2.833 0 01-1.161.233z" fill="#535353"></path><path d="M161.886 15.857a12.255 12.255 0 00-5.089 1.247l-.432.196 1.169 3.13.501-.24a8.125 8.125 0 013.407-.889c1.247 0 1.858.417 1.865 1.275a19.96 19.96 0 00-.953-.023c-3.95 0-6.402 1.774-6.402 4.635 0 2.29 1.634 3.77 4.161 3.77a5.51 5.51 0 003.927-1.453l.363 1.214h2.792v-8.02c-.002-3.033-1.985-4.842-5.309-4.842zm-.94 9.94c-.781 0-1.161-.295-1.161-.901 0-1.355 1.925-1.5 2.753-1.5.297 0 .552.008.813.028a2.392 2.392 0 01-2.405 2.372zM178.14 8.918v5.7c0 .785.01 1.48.031 2.168a5.869 5.869 0 00-3.331-1.007c-3.544 0-6.116 2.748-6.116 6.535 0 3.939 2.515 6.69 6.116 6.69a5.592 5.592 0 003.966-1.505l.345 1.214H182V8.918h-3.86zm-2.726 16.591a3.118 3.118 0 112.831-3.118 2.787 2.787 0 01-1.668 2.893 2.783 2.783 0 01-1.163.225z" fill="#535353"></path><path d="M13.557 14.371a.403.403 0 000-.504L7.88 6.797a.203.203 0 00-.31-.01 19.988 19.988 0 00-4.91 16.056c.04.284.01.573-.088.841l-2.558 6.93a.2.2 0 00.345.195l7.004-8.757 6.195-7.68z" fill="#FFDA22"></path><path d="M22.06 26.634a.804.804 0 010-1.004L36.984 6.858a.405.405 0 00-.022-.53A19.997 19.997 0 0014.346 1.85a.203.203 0 00-.074.312l9.2 11.454a.804.804 0 010 1.008L8.176 33.588a.404.404 0 00.023.535 19.998 19.998 0 0022.84 4.084.203.203 0 00.071-.31l-9.05-11.263z" fill="#FFDA22"></path><path d="M45.02 10.073a.2.2 0 00-.347-.194l-6.946 8.745-5.765 7.254a.402.402 0 000 .501l5.408 6.733a.202.202 0 00.241.058.202.202 0 00.071-.053A19.918 19.918 0 0042.37 18.06c-.04-.342-.012-.689.08-1.02l.021-.073 2.549-6.894z" fill="#FFDA22"></path><path d="M137.149 22a5.684 5.684 0 003.796-5.4c0-3.499-2.748-6.039-6.535-6.039h-7.473v18.156h4.094v-6.13h1.91l4.143 6.085.031.044h4.272v-.748L137.149 22zm-3.053-2.986h-3.061v-4.775h3.118a2.444 2.444 0 012.674 2.414c-.003 1.478-1.022 2.36-2.73 2.36h-.001z" fill="#535353"></path></svg>