<svg width="139" height="72" fill="none" xmlns="http://www.w3.org/2000/svg" data-reactroot=""><path d="M7.756 8.987l4.928 18.156 6.022-18.156h5.84l6.023 18.156 4.928-18.156h7.756l-8.486 28.051h-7.574l-5.566-16.25-5.567 16.25H8.486L0 8.988h7.756zM92.712 8.987l4.927 18.156 6.023-18.156h5.84l6.022 18.156 4.928-18.156h7.757l-8.487 28.051h-7.483l-5.566-16.25-5.567 16.25h-7.482l-8.669-28.05h7.757z" fill="#000"></path><path d="M133.136 57.917L35.588 70.263c-2.555.363-4.836-1.452-5.11-3.903l-2.19-16.794c-.365-2.542 1.46-4.72 3.924-5.084l97.639-12.346c2.555-.363 4.836 1.453 5.11 3.904l2.19 16.703c.365 2.542-1.46 4.811-4.015 5.174z" fill="#F3BA2F"></path><path d="M35.04 71.171c-2.737 0-5.11-1.997-5.474-4.72l-2.19-16.794c-.183-1.453.182-2.814 1.095-3.995a5.39 5.39 0 013.65-2.088L129.76 31.23c3.012-.364 5.749 1.724 6.114 4.72l2.19 16.703c.183 1.453-.182 2.905-1.096 4.085a5.387 5.387 0 01-3.649 2.088L35.771 71.171h-.73zm95.45-38.218h-.457L32.395 45.3c-1.004.091-1.825.636-2.464 1.362-.639.726-.822 1.725-.73 2.633l2.19 16.794c.274 1.997 2.099 3.358 4.106 3.177l97.548-12.346c1.004-.09 1.825-.636 2.464-1.452.639-.817.912-1.725.73-2.724l-2.099-16.612c-.274-1.816-1.825-3.178-3.65-3.178z" fill="#000"></path><path d="M44.257 53.559c-.365-.545-.82-.908-1.55-.817-.64.09-1.096.545-1.005 1.271.092.726.548.908 1.826 1.27 1.55.455 2.28.818 2.737 1.181.547.454.639.999.73 1.543.274 2.088-1.095 3.54-3.103 3.722a3.517 3.517 0 01-3.832-2.178l1.46-.818c.274.545 1.004 1.544 2.281 1.362 1.186-.181 1.551-.998 1.369-1.815-.091-.999-.913-1.18-1.825-1.544-1.278-.363-2.099-.635-2.646-1.18-.457-.363-.548-.908-.64-1.361-.273-1.816.913-2.905 2.556-3.178.547-.09 2.008-.181 3.011 1.453l-1.369 1.089zM61.23 49.02l3.923 6.537 2.1-8.08 4.197 7.263 2.099-7.263 2.007-.272-3.65 11.438-4.198-7.171-2.19 7.988-6.387-10.258 2.099-.181zM97.365 44.481L99.1 44.3l1.369 10.076-1.734.182-.182-1.453a4.398 4.398 0 01-3.194 2.179c-2.556.272-5.202-1.18-5.658-4.72-.456-3.54 1.643-5.629 4.29-5.901 2.007-.272 3.102.726 3.649 1.27l-.274-1.452zm-5.931 5.81c.274 2.179 1.643 3.631 3.832 3.359 2.19-.272 3.103-2.179 2.83-4.176-.366-2.632-2.282-3.54-3.833-3.359-1.643.273-3.103 1.725-2.829 4.176zM118.627 57.736l-1.734.181-2.098-15.705 1.734-.181.182 1.452c1.003-1.543 2.464-1.997 3.194-1.997 3.193-.363 5.292 1.997 5.657 4.72.365 2.815-1.094 5.538-4.197 5.901-1.643.182-2.92-.363-3.742-1.27l1.004 6.899zm5.11-11.438c-.365-2.542-2.19-3.54-3.832-3.36-1.643.182-3.194 1.725-2.829 4.176.273 2.088 1.825 3.632 3.924 3.36 2.098-.273 3.011-2.089 2.737-4.176z" fill="#000"></path><path d="M46.995 11.71c-.913 2.18-1.369 4.54-1.369 6.99 0 2.452.365 4.812 1.369 6.99.912 2.18 2.19 4.086 3.832 5.63 1.552 1.542 3.56 2.813 5.75 3.721 2.28.908 4.744 1.362 7.39 1.362 2.647 0 5.11-.454 7.392-1.362a18.34 18.34 0 005.84-3.722c1.642-1.543 2.92-3.45 3.833-5.628.912-2.179 1.368-4.54 1.368-6.99 0-2.451-.365-4.811-1.368-6.99-.913-2.179-2.19-4.085-3.833-5.628-1.642-1.544-3.65-2.815-5.84-3.722-2.19-.999-4.745-1.453-7.391-1.453-2.647 0-5.11.454-7.392 1.362-2.281.908-4.106 2.179-5.749 3.722a17.536 17.536 0 00-3.832 5.719z" fill="#F3BA2F"></path><path d="M63.967 37.4c-2.92 0-5.475-.453-7.756-1.451-2.373-1-4.472-2.36-6.023-3.995-1.734-1.634-3.011-3.54-4.015-5.9-.913-2.27-1.46-4.63-1.46-7.353 0-2.724.456-5.084 1.46-7.354 1.004-2.36 2.372-4.357 4.015-5.991 1.825-1.725 3.741-2.996 6.023-3.904C58.583.454 61.138 0 63.967 0c2.92 0 5.475.454 7.756 1.452 2.373.999 4.472 2.27 6.114 3.904 1.734 1.634 3.011 3.54 4.015 5.991.913 2.27 1.46 4.63 1.46 7.354 0 2.723-.456 5.083-1.46 7.353-1.004 2.36-2.372 4.357-4.015 5.99a19.511 19.511 0 01-6.114 3.905c-2.281.998-4.836 1.452-7.756 1.452zm0-35.584c-2.646 0-4.928.453-7.026 1.27-2.1.817-3.833 1.998-5.476 3.54-1.55 1.453-2.737 3.178-3.65 5.357-.82 1.997-1.277 4.176-1.277 6.627 0 2.45.456 4.63 1.277 6.627.913 2.178 2.1 3.903 3.65 5.356 1.46 1.452 3.285 2.632 5.476 3.54 2.098.908 4.38 1.27 7.026 1.27s4.928-.453 7.026-1.27c2.19-.908 4.015-2.088 5.567-3.54 1.55-1.453 2.737-3.178 3.65-5.356.821-1.998 1.277-4.176 1.277-6.627 0-2.451-.456-4.63-1.277-6.627-.913-2.179-2.1-3.904-3.65-5.356-1.552-1.453-3.468-2.724-5.567-3.54-2.007-.818-4.288-1.271-7.026-1.271z" fill="#000"></path><path d="M59.04 15.523c1.369 0 2.464-1.453 2.464-3.178 0-1.725-1.095-3.177-2.464-3.177s-2.464 1.453-2.464 3.177c0 1.725 1.095 3.178 2.464 3.178zM68.804 15.523c1.368 0 2.463-1.453 2.463-3.178 0-1.725-1.095-3.177-2.463-3.177-1.37 0-2.464 1.453-2.464 3.177 0 1.725 1.095 3.178 2.464 3.178zM64.24 31.864c3.742 0 6.754-3.178 6.754-7.081 0-3.904-3.012-7.08-6.753-7.08s-6.753 3.176-6.753 7.08c0 3.903 3.012 7.08 6.753 7.08z" fill="#000"></path></svg>