<svg width="269" height="60" fill="none" xmlns="http://www.w3.org/2000/svg" data-reactroot=""><path d="M105.159 19.09c1.649 1.015 3.044 2.41 3.932 4.313 1.015 1.903 1.523 4.186 1.523 6.723s-.508 4.694-1.65 6.597c-1.014 1.902-2.537 3.298-4.439 4.186-1.903 1.014-4.186 1.522-6.596 1.522-1.396 0-2.664-.254-3.933-.761-1.268-.38-2.41-1.142-3.298-2.03v13.193h-7.357V18.076h6.342l.635 2.79c2.79-2.283 5.835-3.425 9.006-3.425 2.156 0 4.186.508 5.835 1.65zM101.1 34.82c1.268-1.142 1.903-2.664 1.903-4.567 0-1.902-.635-3.425-1.776-4.693-1.142-1.269-2.664-1.776-4.313-1.776-1.396 0-2.664.254-3.679.888-1.015.507-1.776 1.395-2.41 2.537v5.708c.38 1.142 1.142 2.03 2.03 2.664a6.49 6.49 0 003.551 1.015c1.903 0 3.425-.634 4.694-1.776zM114.926 23.53c1.142-1.776 2.664-3.298 4.694-4.313 2.029-1.014 4.313-1.649 6.85-1.649s4.82.508 6.85 1.65c1.902 1.014 3.425 2.536 4.566 4.44 1.142 1.902 1.649 3.931 1.649 6.342 0 2.41-.507 4.44-1.649 6.342-1.141 1.903-2.537 3.425-4.566 4.44-1.903 1.015-4.313 1.649-6.85 1.649s-4.821-.508-6.85-1.522c-2.03-1.015-3.552-2.41-4.694-4.313A13.738 13.738 0 01113.277 30c0-2.41.635-4.567 1.649-6.47zm7.485 11.036c1.014 1.269 2.41 1.776 4.059 1.776s3.044-.634 4.059-1.776c1.015-1.141 1.522-2.79 1.522-4.566 0-1.903-.507-3.425-1.522-4.567-1.142-1.268-2.41-1.903-4.186-1.903-1.649 0-2.918.635-4.059 1.776-1.015 1.269-1.523 2.79-1.523 4.694 0 1.776.508 3.298 1.65 4.566zM151.459.063v41.734h-7.357V.063h7.357zM181.65 18.71l-14.969 34.25h-7.103l5.581-12.305-10.655-21.945h8.372l6.089 13.7 6.089-13.7h6.596zM209.81 18.71v23.087a10.11 10.11 0 01-1.902 5.962c-1.269 1.776-2.918 3.17-5.074 4.186-2.157 1.014-4.44 1.522-6.977 1.522-1.903 0-3.552-.254-4.947-.634-1.396-.508-2.537-1.015-3.425-1.523-1.015-.634-2.03-1.395-3.172-2.41l4.313-5.074a12.402 12.402 0 003.172 2.284c1.014.507 2.41.888 3.932.888 1.903 0 3.425-.508 4.693-1.396 1.269-.888 1.903-2.283 1.903-3.932v-3.298a8.313 8.313 0 01-3.298 2.917c-1.522.761-3.298 1.142-5.328 1.142-2.029 0-4.059-.508-5.835-1.65-1.776-1.014-3.171-2.536-4.313-4.439-1.014-1.903-1.649-3.932-1.649-6.215 0-2.284.508-4.44 1.649-6.343 1.142-1.903 2.537-3.425 4.44-4.567 1.776-1.141 3.679-1.649 5.708-1.649 1.903 0 3.552.254 5.074.761 1.523.508 2.664 1.269 3.425 2.157l.761-1.776h6.85zm-7.484 14.207V27.21c-.507-1.142-1.268-2.03-2.41-2.664a7.874 7.874 0 00-3.932-1.015c-1.776 0-3.298.635-4.567 1.776-1.268 1.142-1.903 2.664-1.903 4.567 0 1.776.635 3.425 1.903 4.693 1.269 1.269 2.791 1.903 4.567 1.903 2.917-.127 5.074-1.269 6.342-3.552zM215.899 23.53c1.142-1.902 2.664-3.298 4.693-4.44 2.03-1.014 4.313-1.649 6.85-1.649s4.821.508 6.85 1.65c1.903 1.014 3.425 2.537 4.567 4.44 1.015 1.902 1.649 3.931 1.649 6.342 0 2.41-.507 4.44-1.649 6.342a10.311 10.311 0 01-4.567 4.44c-1.902 1.015-4.313 1.649-6.85 1.649s-4.82-.507-6.85-1.522c-2.029-1.015-3.551-2.41-4.693-4.313-1.142-1.903-1.649-4.06-1.649-6.723 0-2.157.507-4.313 1.649-6.216zm7.357 11.036c1.015 1.269 2.411 1.776 4.06 1.776 1.649 0 3.044-.634 4.059-1.776 1.015-1.142 1.522-2.79 1.522-4.567 0-1.902-.507-3.424-1.522-4.566-1.015-1.142-2.41-1.776-4.059-1.776s-2.918.634-4.06 1.776c-1.141 1.142-1.649 2.79-1.649 4.567.127 1.775.635 3.298 1.649 4.566zM266.512 19.471c1.522 1.269 2.156 2.918 2.283 4.947v17.379h-7.484V27.209c-.127-2.283-1.269-3.425-3.425-3.425-1.649 0-3.044.761-4.059 2.41-1.015 1.65-1.522 3.679-1.522 6.089v9.514h-7.358V18.71h6.723l.508 3.679a9.54 9.54 0 013.552-3.552c1.522-.888 3.298-1.269 5.327-1.269 2.157 0 4.059.635 5.455 1.903z" fill="#535353"></path><path d="M51.882 18.33c-1.269-.761-2.918-.761-4.313 0l-9.895 5.835-6.723 3.805-9.894 5.836c-1.268.76-2.917.76-4.313 0L8.88 29.239c-1.268-.761-2.156-2.157-2.156-3.679v-9.006c0-1.522.761-2.918 2.156-3.679l7.738-4.44c1.269-.76 2.918-.76 4.313 0l7.738 4.44c1.269.761 2.157 2.157 2.157 3.679v5.835l6.723-3.932v-5.835c0-1.523-.762-2.918-2.157-3.68L21.057.572C19.79-.19 18.14-.19 16.744.57L2.156 8.943C.761 9.704 0 11.099 0 12.622v16.87c0 1.523.761 2.918 2.156 3.68l14.588 8.371c1.269.761 2.918.761 4.313 0l9.894-5.708 6.723-3.932 9.895-5.708c1.268-.762 2.917-.762 4.313 0l7.737 4.44c1.269.76 2.157 2.156 2.157 3.678v9.006c0 1.522-.761 2.918-2.157 3.679l-7.737 4.567c-1.269.76-2.918.76-4.313 0l-7.738-4.44c-1.269-.761-2.157-2.157-2.157-3.679v-5.835l-6.723 3.932v5.835c0 1.523.761 2.918 2.157 3.68l14.588 8.371c1.268.761 2.917.761 4.313 0l14.587-8.372c1.269-.761 2.157-2.156 2.157-3.679v-16.87c0-1.523-.761-2.918-2.157-3.68L51.882 18.33z" fill="#8247E5"></path></svg>