<svg width="197" height="40" fill="none" xmlns="http://www.w3.org/2000/svg" data-reactroot=""><path d="M40.004 20c0 11.046-8.955 20-20.002 20C8.955 40 0 31.046 0 20S8.955 0 20.002 0c11.047 0 20.002 8.954 20.002 20z" fill="#4958C5"></path><path d="M28.152 11.71h-5.466v-1.54c0-1.69 1.755-2.953 2.931-3.059 1.027-.093 1.583-.221 3.616.442V4.78c-1.391-.344-3.06-.295-4.45-.172-1.519.086-4.963 1.69-4.963 5.412v1.69h-2.011v2.524h2.01v9.519s-1.304-1.24-3.978-1.24c-3.722 0-7.017 2.865-7.017 6.972s3.06 7.055 7.103 7.055c4.043 0 6.866-3.461 6.952-7.055.086-3.593 0-7.679 0-7.679v-7.572h5.273V11.71z" fill="#fff"></path><path d="M15.953 33.483a4.107 4.107 0 100-8.214 4.107 4.107 0 000 8.214z" fill="#4958C5"></path><path d="M49.379 23.313c0-1.77.362-3.34 1.088-4.705.747-1.367 1.75-2.423 3.01-3.17 1.28-.768 2.688-1.152 4.225-1.152 1.386 0 2.592.278 3.617.832 1.046.534 1.878 1.206 2.496 2.017v-2.56h3.682v17.637h-3.681v-2.625c-.62.832-1.463 1.526-2.53 2.08-1.066.555-2.282.833-3.648.833-1.515 0-2.903-.384-4.162-1.152-1.259-.79-2.262-1.879-3.009-3.265-.726-1.409-1.088-2.999-1.088-4.77zm14.437.064c0-1.216-.257-2.273-.769-3.169-.49-.896-1.142-1.579-1.952-2.049a5.15 5.15 0 00-2.625-.704 5.15 5.15 0 00-2.625.704c-.81.449-1.472 1.12-1.985 2.017-.49.875-.736 1.92-.736 3.137 0 1.216.246 2.283.736 3.201.513.918 1.174 1.622 1.985 2.113.798.46 1.703.703 2.625.704a5.15 5.15 0 002.625-.704c.81-.47 1.462-1.153 1.952-2.049.512-.918.769-1.985.769-3.2zm24.127-8.803v17.638h-3.649v-2.08c-.576.725-1.334 1.301-2.273 1.728a7.205 7.205 0 01-2.945.608c-1.387 0-2.636-.288-3.745-.864-1.088-.576-1.952-1.43-2.593-2.561-.619-1.13-.928-2.497-.928-4.097V14.574h3.617v9.827c0 1.58.395 2.796 1.185 3.65.789.832 1.867 1.248 3.233 1.248 1.365 0 2.443-.416 3.233-1.248.81-.854 1.216-2.07 1.216-3.65v-9.827h3.65zm8.752 2.977v9.763c0 .662.15 1.142.448 1.44.32.278.854.417 1.6.417h2.241v3.04h-2.88c-1.644 0-2.903-.383-3.778-1.151-.875-.769-1.312-2.017-1.312-3.746v-9.763h-2.081v-2.977h2.08V10.19h3.682v4.385h4.289v2.977h-4.29zM111.678 32.5c-1.664 0-3.169-.374-4.513-1.12a8.297 8.297 0 01-3.169-3.201c-.769-1.387-1.153-2.988-1.153-4.802 0-1.793.395-3.383 1.185-4.77.789-1.386 1.867-2.454 3.233-3.2 1.365-.747 2.891-1.12 4.577-1.12 1.685 0 3.212.373 4.578 1.12 1.365.746 2.443 1.814 3.233 3.2.789 1.387 1.184 2.977 1.184 4.77 0 1.793-.406 3.383-1.216 4.77a8.515 8.515 0 01-3.329 3.233c-1.388.746-2.925 1.12-4.61 1.12zm0-3.169c.939 0 1.813-.224 2.625-.672.832-.448 1.504-1.12 2.017-2.017.512-.896.768-1.985.768-3.265s-.246-2.358-.736-3.233c-.492-.896-1.142-1.568-1.953-2.017a5.343 5.343 0 00-2.625-.672c-.939 0-1.814.224-2.625.672-.79.449-1.419 1.12-1.888 2.017-.47.875-.705 1.953-.705 3.233 0 1.9.481 3.372 1.441 4.418.981 1.024 2.209 1.536 3.681 1.536zm19.837-11.78h-3.265v14.66h-3.681v-14.66h-2.081v-2.977h2.081v-1.248c0-2.027.533-3.5 1.6-4.418 1.088-.938 2.785-1.408 5.09-1.408v3.041c-1.11 0-1.889.214-2.337.64-.448.406-.672 1.12-.672 2.145v1.248h3.265v2.977zm1.697 5.762c0-1.77.363-3.34 1.088-4.705.747-1.367 1.75-2.423 3.009-3.17 1.281-.768 2.689-1.152 4.226-1.152 1.387 0 2.593.278 3.617.832 1.045.534 1.877 1.206 2.497 2.017v-2.56h3.681v17.637h-3.681v-2.625c-.62.832-1.462 1.526-2.529 2.08-1.068.555-2.284.833-3.649.833-1.516 0-2.903-.384-4.162-1.152-1.259-.79-2.262-1.879-3.009-3.265-.725-1.409-1.088-2.999-1.088-4.77zm14.437.064c0-1.216-.256-2.273-.768-3.169-.492-.896-1.142-1.579-1.953-2.049a5.153 5.153 0 00-2.625-.704 5.15 5.15 0 00-2.625.704c-.811.449-1.472 1.12-1.984 2.017-.492.875-.737 1.92-.737 3.137 0 1.216.245 2.283.737 3.201.512.918 1.173 1.622 1.984 2.113.832.47 1.707.704 2.625.704a5.153 5.153 0 002.625-.704c.811-.47 1.461-1.153 1.953-2.049.512-.918.768-1.985.768-3.2zm11.803-6.242a5.644 5.644 0 012.112-2.08c.897-.513 1.953-.769 3.169-.769v3.777h-.928c-1.429 0-2.517.363-3.265 1.089-.725.726-1.088 1.984-1.088 3.777v9.283h-3.649V14.574h3.649v2.561zm29.667-2.849c1.387 0 2.625.288 3.713.864 1.109.577 1.973 1.43 2.593 2.561.64 1.131.96 2.497.96 4.098v10.403h-3.617v-9.86c0-1.578-.395-2.784-1.184-3.616-.79-.854-1.868-1.28-3.233-1.28-1.366 0-2.455.426-3.265 1.28-.79.832-1.185 2.038-1.185 3.617v9.859h-3.617v-9.86c0-1.578-.395-2.784-1.184-3.616-.79-.854-1.868-1.28-3.233-1.28-1.366 0-2.455.426-3.265 1.28-.79.832-1.185 2.038-1.185 3.617v9.859h-3.649V14.574h3.649v2.017c.597-.726 1.355-1.29 2.273-1.697a7.2 7.2 0 012.945-.608c1.408 0 2.667.299 3.777.896a6.13 6.13 0 012.561 2.593c.533-1.066 1.365-1.91 2.497-2.528a7.284 7.284 0 013.649-.96z" fill="#000"></path></svg>