<svg width="224" height="44" fill="none" xmlns="http://www.w3.org/2000/svg" data-reactroot=""><path d="M38.664 24.462c-1.436-1.847-3.675-3.15-6.719-3.91 2.004-.719 3.526-1.697 4.566-2.936 1.56-1.857 2.34-4.084 2.34-6.68 0-3.096-1.093-5.693-3.28-7.79C33.386 1.049 30.25 0 26.166 0H1.66v12.968h15.285V9.715c0-1.409 1.435-2.55 3.206-2.55h.495c1.984 0 3.376.445 4.176 1.337.799.892 1.199 1.982 1.199 3.715 0 1.709-.4 3.015-1.2 3.92-.8.904-2.22 1.355-4.262 1.355l-18.9-.035v22.726H0v3.708h1.66v.03H16.98L16.95 26.73c-.003-1.41 1.433-2.554 3.205-2.554h1.357c2.293 0 3.897.52 4.812 1.559.915 1.04 1.373 2.413 1.373 4.123 0 1.842-.463 3.309-1.387 4.4-.911 1.076-1.686 1.62-3.886 1.637v8.027s3.695.059 7.7-.599c2.2-.361 6.457-1.955 9.16-5.752 1.234-1.732 1.533-3.865 1.533-6.142 0-2.796-.718-5.118-2.153-6.966z" fill="#FDCA00"></path><path d="M50.716 5.573h19.907v5.82h-13.76v8.441H69.55v5.82H56.864v9.019h13.759v5.82H50.716V5.573zM99.457 33.257H87.406l-2.05 7.236h-6.44l10.246-34.92h8.587l10.246 34.92h-6.44l-2.098-7.236zm-10.539-5.715h8.978l-4.44-16.516-4.538 16.516zM136.002 40.492l-7.465-11.534h-5.855v11.535h-6.148V5.572h13.32c7.563 0 10.344 3.304 10.344 9.438v4.562c0 4.194-1.464 7.13-4.879 8.441l8.05 12.479h-7.367zm-6.392-29.099h-6.928v11.85h6.928c3.367 0 4.44-1.311 4.44-4.247v-3.46c0-2.937-1.171-4.143-4.44-4.143zM157.908 14.015v26.477h-6.001V5.573h8.197l12.344 26.53V5.574h6.002v34.92h-8.197l-12.345-26.478z" fill="#535353"></path><path d="M190.158 35.983h3.025v4.51h-3.025v-4.51zM220.847 40.492V17.58h-12.588v22.912h-2.83V17.58h-4.44v-2.622h4.44V9.61c0-4.194 2.391-6.134 6.148-6.134 1.659 0 3.367.262 4.879.786l-.39 2.36c-1.464-.315-2.976-.525-4.294-.525-2.683 0-3.513 1.101-3.513 3.88v4.981h15.418v25.534h-2.83zm0-30.357v-5.61h2.83v5.61h-2.83z" fill="#FECC00"></path></svg>