<svg width="796" height="217" fill="none" xmlns="http://www.w3.org/2000/svg" data-reactroot=""><path d="M222.4 26.6H259c9.3 0 16.1 2.5 20.5 6.8 4.3 3.7 6.2 8.7 6.2 13.6 0 1.9 0 4.3-.6 6.2-1.2 3.1-3.1 6.2-5.6 8.7-1.2 1.2-2.5 1.9-3.7 2.5 4.3 1.2 8.1 3.7 11.2 6.8 2.5 3.1 3.7 6.8 3.7 12.4 0 3.1-.6 6.8-1.9 9.3-1.2 2.5-3.7 5-6.2 6.8-3.1 1.9-6.2 3.1-9.3 4.3-3.7 1.2-8.1 1.2-12.4 1.2H223V26.4h-.6v.2zm33.5 32.2c3.1 0 6.2-.6 9.3-1.9 2.5-1.2 3.7-3.7 3.7-6.2s-1.2-5-3.1-6.2c-2.5-1.9-5.6-2.5-8.7-1.9h-17.4v16.7h16.1v-.5h.1zm4.3 31.7c3.1 0 6.2-.6 9.3-1.9 2.5-1.2 3.7-3.7 3.1-6.8 0-2.5-1.2-5-3.1-6.2-1.9-1.2-5.6-2.5-9.9-2.5h-20.5v17.4h21.1zM312.301 26.6h17.4V106h-17.4V26.6zM356.4 26.6h16.1l37.2 49v-49H427V106h-14.8l-39.1-50.3V106h-16.7V26.6zM479.8 26h16.1l34.1 80h-18l-7.4-18h-33.5l-7.4 18h-18l34.1-80zm18.6 47.1l-10.5-26-10.5 26h21zM548.601 26.6h16.1l37.2 49v-49h17.4V106h-14.9l-38.5-50.3V106h-17.3V26.6zM682.501 107.2c-5.6 0-11.2-1.2-16.1-3.1-9.9-4.3-17.4-11.8-21.7-21.7-1.9-5-3.1-10.5-3.1-16.1 0-10.5 4.3-21.1 11.8-29.1 3.7-3.7 8.1-6.8 13-8.7 5.6-2.5 11.2-3.1 16.7-3.1 3.1 0 6.8 0 9.9.6 3.1.6 5.6 1.2 8.1 2.5 2.5 1.2 5 2.5 6.8 3.7 1.9 1.2 4.3 3.1 6.2 5l-10.5 13c-3.1-2.5-6.2-5-9.3-6.8-3.1-1.8-6.8-2.5-10.5-2.5-3.1 0-6.2.6-9.3 1.9-3.1 1.2-5.6 3.1-7.4 5.6-1.8 2.5-3.7 5-5 8.1-1.2 3.1-1.9 6.2-1.9 9.3 0 3.1.6 6.8 1.9 9.9 1.3 3.1 2.5 5.6 5 8.1 4.3 5 10.5 7.4 16.7 7.4 3.7 0 8.1-.6 11.8-2.5 3.1-1.9 6.8-4.3 9.3-6.8l11.1 11.1-6.2 6.2c-2.5 1.9-5 3.1-7.4 4.3-2.5 1.2-5.6 2.5-8.7 3.1-4.4.6-8.1.6-11.2.6zM735.9 26.6h59.5v15.5h-42.8v16.1h37.8v15.5h-37.8v16.8H796V106h-60.1V26.6zM244.701 184.1c-4.3 0-8.7-.6-12.4-2.5-3.7-1.2-7.4-3.7-11.2-6.8l6.2-6.8c2.5 2.5 5 3.7 8.1 5.6 3.1 1.2 6.2 1.9 9.3 1.9 2.5 0 5-.6 7.4-1.9 1.9-1.2 2.5-3.1 2.5-5 0-.6 0-1.9-.6-2.5-.6-.6-1.2-1.9-1.9-2.5-1.2-.6-2.5-1.2-3.7-1.9-1.9-.6-4.3-1.2-6.2-1.9-2.5-.6-5.6-1.2-8.1-2.5-1.9-.6-4.3-1.9-5.6-3.1-1.2-1.2-2.5-2.5-3.7-4.3-1.2-2.5-1.2-5-1.2-6.8 0-2.5.6-4.3 1.2-6.8.6-1.9 2.5-3.7 3.7-5 1.9-1.2 3.7-2.5 6.2-3.1 2.5-.6 5-1.2 7.4-1.2 3.7 0 7.4.6 11.2 1.9 3.1 1.2 6.2 3.1 9.3 5l-5 7.4c-2.5-1.9-5-3.1-7.4-4.3-2.5-1.2-5-1.2-7.4-1.2-2.5 0-5 .6-6.8 1.9-1.2 1.2-2.5 3.1-2.5 5 0 1.2 0 1.9.6 3.1.6.6 1.2 1.9 1.9 2.5 1.2.6 2.5 1.2 4.3 1.9 1.9.6 3.7 1.2 6.8 1.9 2.5.6 5 1.2 8.1 2.5 1.9.6 3.7 1.9 5.6 3.1 1.2 1.2 2.5 3.1 3.1 4.3.6 1.9 1.2 3.7 1.2 6.2s-.6 5-1.2 6.8c-1.2 1.9-2.5 3.7-4.3 5.6-1.9 1.2-3.7 2.5-6.2 3.1-3.1-.2-6.2.4-8.7.4zM275.7 127.7h10.6l16.7 26 17.4-26h10.5v55.8H321v-40.3l-17.4 26h-.6l-17.3-26v40.3h-10v-55.8zM364.401 127.1h9.3l24.2 55.8h-10.5l-5.6-13.6h-26l-5.6 13.6h-9.9l24.1-55.8zm14.3 34.1l-9.9-22.3-9.3 22.3h19.2zM407.8 127.7h24.8c3.1 0 6.2.6 9.3 1.2 2.5.6 5 2.5 6.8 4.3 1.2 1.2 2.5 3.1 3.7 5.6.6 1.9 1.2 4.3 1.2 6.8 0 1.9-.6 4.3-1.2 6.2-.6 1.9-1.9 3.1-2.5 5-1.2 1.2-2.5 2.5-4.3 3.7-1.9 1.2-3.7 1.9-5.6 2.5l14.9 21.1h-11.8l-13.6-19.2h-12.4v19.2h-9.9l.6-56.4zM432 155c3.1 0 6.2-.6 8.1-2.5 1.9-1.9 3.1-4.3 3.1-6.8s-1.2-5-3.1-6.8c-2.5-1.9-5.6-2.5-8.7-2.5h-14.3V155H432zM479.101 136.4h-18v-8.7h45.3v8.7h-18v47.1h-9.9l.6-47.1zM566.6 184.1c-3.7 0-7.4-.6-11.2-2.5-6.8-3.1-12.4-8.1-14.9-14.9-1.2-3.7-2.5-7.4-1.9-11.2 0-3.7.6-7.4 1.9-11.2 2.5-6.8 8.1-12.4 14.9-15.5 3.7-1.2 7.4-2.5 11.8-2.5 2.5 0 5 0 6.8.6 1.9.6 3.7 1.2 5.6 1.9 1.9.6 3.1 1.9 5 2.5 1.2 1.2 3.1 2.5 4.3 3.7l-6.2 7.4c-1.9-1.9-4.3-3.7-6.8-5-2.5-1.2-5.6-1.9-8.7-1.9-2.5 0-5 .6-7.4 1.2-2.5 1.2-4.3 2.5-6.2 4.3-1.9 1.9-3.1 3.7-3.7 6.2-.6 2.5-1.2 5-1.2 7.4 0 2.5.6 5 1.2 7.4.6 2.4 1.9 4.3 3.7 6.2 1.9 1.9 3.7 3.1 6.2 4.3 2.5 1.2 5 1.9 7.4 1.2 3.1 0 6.2-.6 8.7-1.9 2.5-1.2 5-3.1 7.4-5.6l6.2 6.2-4.3 4.3c-1.9 1.2-3.1 2.5-5 3.1-1.9.6-3.7 1.9-6.2 1.9-2.5 2.4-5 2.4-7.4 2.4zM599.4 127.7h9.3v22.9h26.7v-22.9h9.9v55.8h-9.9v-23.6h-26.7v23.6h-9.3v-55.8zM679.401 127.1h9.3l24.2 55.8h-10.5l-5.6-13.6h-26l-5.6 13.6h-9.9l24.1-55.8zm13.7 34.1l-9.3-22.3-9.3 22.3h18.6zM722.801 127.7h10v55.8h-10v-55.8zM747.601 127.7h8.7l29.8 38.4v-38.4h9.9v55.8h-8.1l-30.3-39.7v39.7h-10v-55.8zM113.3 179.8V204l-21.1 12.4L71.7 204v-24.2l20.5 12.4 21.1-12.4zM.4 96.1l20.5 12.4V150l35.3 21.1v24.2L.4 162.4V96.1zm183.6 0v66.4l-56.4 32.9v-24.2l35.3-21.1v-41.5L184 96.1zm-56.5-32.9l21.1 12.4v24.2l-35.3 21.1V163l-20.5 12.4L72.4 163v-42.2L35.8 99.7V75.5l21.1-12.4 35.3 21.1 35.3-21zm-91.7 53.9l20.5 12.4v24.2l-20.5-12.4v-24.2zm112.8 0v24.2l-20.5 12.4v-24.2l20.5-12.4zm-127.7-75L42 54.5 20.9 66.9v24.2L.4 78.7V54.5l20.5-12.4zm142.6 0l21.1 12.4v24.2l-21.1 12.4V66.9L143 54.5l20.5-12.4zm-71.3 0l21.1 12.4-21.1 12.4-20.5-12.4 20.5-12.4zm0-41.5l56.4 32.9-20.5 12.4-35.3-21.1-36 21.1-20.5-12.4L92.2.6z" fill="#F3BA2F"></path></svg>