<svg width="134" height="61" fill="none" xmlns="http://www.w3.org/2000/svg" data-reactroot=""><path d="M132.805 31.19a7.757 7.757 0 00-2.873-2.075 18.487 18.487 0 00-5.747-1.426c-.709-.075-1.439-.13-2.086-.453a2.287 2.287 0 01-.967-.889c-.69-1.197.162-2.311 1.229-2.678a6.041 6.041 0 011.979-.25s3.071 0 3.071 3.288l6.127-.028c0-7.77-9.198-7.768-9.198-7.768-2.283 0-4.76.37-6.656 1.842a6.655 6.655 0 00-2.419 4.022c-.325 1.694-.097 3.526 1 4.87a7.467 7.467 0 002.601 1.969c1.749.86 3.693 1.25 5.619 1.454.715.075 1.449.13 2.099.45.405.196.745.506.977.892.695 1.2-.162 2.316-1.229 2.681a6.044 6.044 0 01-1.979.25s-3.069 0-3.069-3.286l-6.496.025c0 7.763 9.555 7.768 9.575 7.768 1.749 0 3.525-.217 5.147-.922a7.198 7.198 0 003.925-3.998c.707-1.906.69-4.117-.63-5.739zM86.718 20.598v12.15a3.196 3.196 0 01-3.195 3.189 3.194 3.194 0 01-3.188-3.188V20.598a1.459 1.459 0 00-1.462-1.46h-4.938v14.34c0 5.295 4.293 8.126 9.588 8.126 5.294 0 9.584-2.831 9.584-8.126v-14.34h-4.93a1.456 1.456 0 00-1.459 1.46zM49.827 41.224V19.139H54.1a1.466 1.466 0 011.157.567l7.35 10.484v-9.592a1.459 1.459 0 011.462-1.46H69v22.086h-4.28a1.462 1.462 0 01-1.15-.56l-7.35-10.29v10.85h-6.392zM98.045 41.229v-22.09h4.93a1.459 1.459 0 011.461 1.459v15.641h7.853v4.997l-14.244-.007z" fill="#535353"></path><path d="M13.123 39.544l4.937 6.794v13.877L0 52.549V16.412a4.935 4.935 0 014.935-4.935l17.397 23.944 8.853 5.39V11.03l-8.188-3.477v20.387l-4.937-6.797V.524l18.05 7.678v33.51a4.937 4.937 0 01-4.935 4.938L18.62 38.702 4.942 19.875v29.833l8.18 3.468V39.544z" fill="#00E789"></path></svg>