<svg width="199" height="45" fill="none" xmlns="http://www.w3.org/2000/svg" data-reactroot=""><path fill-rule="evenodd" clip-rule="evenodd" d="M41.257 20.662C41.257 9.251 32.022 0 20.63 0H1.217C.545 0 0 .546 0 1.22v38.885c0 .674.545 1.22 1.217 1.22H9.41c.672 0 1.217-.546 1.217-1.22V11.818c0-.673.545-1.219 1.217-1.219h13.86c.779 0 .863.77.201 1.18l-9.543 5.935a1.22 1.22 0 00-.575 1.036v24.79c0 .883.906 1.473 1.711 1.114l10.509-4.677v-.013c7.749-2.974 13.25-10.494 13.25-19.302zM20.63 24.871v1.73a.913.913 0 001.41.766l4.781-3.114a1.83 1.83 0 00.83-1.533v-1.56a.913.913 0 00-1.39-.779l-4.762 2.932a1.83 1.83 0 00-.87 1.558z" fill="#13C09D"></path><path fill-rule="evenodd" clip-rule="evenodd" d="M131.479 9.91v24.832c0 .344.279.622.622.622l3.347.003h.005c1.184.002 2.368.003 3.553.003 2.453 0 4.348-.006 6.144-.018 2.127-.015 3.983-.43 5.672-1.264 2.089-1.034 3.425-2.803 3.764-4.982.335-2.155-.385-4.452-1.833-5.85-.412-.397-.889-.743-1.351-1.077l-.02-.015-.052-.037c-.198-.144-.402-.292-.598-.442l-.018-.014-.006-.023c-.011-.041-.015-.061.177-.17a6.08 6.08 0 001.709-1.417c1.022-1.224 1.482-3.095 1.203-4.88a6.143 6.143 0 00-2.822-4.297c-1.604-1.017-3.499-1.545-5.634-1.568-2.525-.028-5.062-.03-6.991-.03h-2.816l-2.027.001-1.406.001a.623.623 0 00-.622.622zm7.395 4.929c-.343 0-.62.279-.62.622v3.144c0 .344.278.623.621.623l2.624.001c.966 0 2.242-.002 3.528-.01.248-.002.532-.07.87-.205.803-.323 1.214-.972 1.225-1.93.012-1.007-.387-1.675-1.188-1.985a3.862 3.862 0 00-1.333-.249c-.813-.012-1.709-.016-2.814-.016-.723 0-1.445.001-2.167.003l-.746.002zm6.055 14.81c-.954.005-1.972.006-3.296.006h-2.758a.622.622 0 01-.621-.623V25.19c0-.343.278-.622.621-.622h.707c1.73 0 3.46-.001 5.19.008.422.001.82.043 1.182.122 1.258.273 1.956 1.194 1.917 2.526a2.445 2.445 0 01-1.96 2.326 5.038 5.038 0 01-.982.1z" fill="#16221F"></path><path d="M156.638 26.228a8.762 8.762 0 01.763-3.634 8.986 8.986 0 012.133-2.927 10.062 10.062 0 013.244-1.958 11.379 11.379 0 014.11-.715 11.52 11.52 0 014.08.697 10.049 10.049 0 013.264 1.939 8.628 8.628 0 012.142 2.965 9.198 9.198 0 01.763 3.765 9.071 9.071 0 01-.781 3.765 9.074 9.074 0 01-2.142 2.965 9.53 9.53 0 01-3.282 1.882 12.329 12.329 0 01-4.146.687 11.773 11.773 0 01-4.054-.687 9.308 9.308 0 01-3.217-1.939 9.057 9.057 0 01-2.114-3.021 9.683 9.683 0 01-.763-3.784zm6.361.066a4.01 4.01 0 00.313 1.619c.201.474.484.908.836 1.28.347.364.763.652 1.223.847a3.862 3.862 0 003.033 0 3.669 3.669 0 001.232-.847 4.46 4.46 0 00.827-1.28 3.937 3.937 0 00.322-1.582 3.836 3.836 0 00-.322-1.553 4.46 4.46 0 00-.827-1.28 3.669 3.669 0 00-1.232-.847 3.86 3.86 0 00-3.033 0c-.46.195-.876.483-1.223.847-.35.366-.632.794-.836 1.261a3.742 3.742 0 00-.313 1.535zM178.952 35.348a.311.311 0 01-.261-.48l5.651-8.725-5.196-8.657a.311.311 0 01.266-.471h6.691a.31.31 0 01.277.17l2.464 4.828 2.578-4.837a.31.31 0 01.274-.164h6.473c.24 0 .39.261.268.469l-5.093 8.662 5.606 8.711a.311.311 0 01-.261.48h-6.783a.311.311 0 01-.272-.16l-2.839-5.1-2.911 5.117a.31.31 0 01-.269.157h-6.663z" fill="#16221F"></path><path fill-rule="evenodd" clip-rule="evenodd" d="M64.032 9.239c2.524.026 4.837.61 6.878 1.734 2.752 1.516 4.607 3.82 5.518 6.842.966 3.207.926 6.39-.115 9.464-1.309 3.859-4.071 6.425-8.213 7.628-1.435.416-2.996.62-4.772.62h-10.43a.622.622 0 01-.622-.623V9.85c0-.347.28-.628.627-.628l2.487-.003a761.18 761.18 0 018.642.02zm.517 20.194c-1.167.115-3.533.126-3.533.126-.215 0-.431 0-.647-.002l-.382-.003a.635.635 0 01-.635-.63V15.825c0-.344.279-.623.622-.623l.438-.002c1.112-.003 2.224-.007 3.334.024 3.167.088 5.443 1.986 6.09 5.079.471 2.266.251 4.232-.673 6.01-.955 1.835-2.55 2.915-4.614 3.119z" fill="#16221F"></path><path d="M101.592 35.346a.622.622 0 01-.621-.623V9.933c0-.344.278-.622.621-.622h17.79c-.036 3.251-2.69 5.886-5.943 5.886h-5.486v5.385h10.676c-.037 3.198-2.646 5.79-5.848 5.79h-4.853v8.353a.621.621 0 01-.621.622l-5.715-.001zM89.767 35.774c-.385 0-.781-.014-1.178-.041-1.954-.133-3.59-.578-5-1.355-2.537-1.4-4.016-3.637-4.393-6.645-.246-1.957-.034-3.774.627-5.402.98-2.409 2.683-4.075 5.059-4.954 1.508-.56 3.014-.842 4.476-.842 1.806 0 3.578.43 5.268 1.28 2.553 1.281 4.027 3.494 4.385 6.576.116 1.004.07 2.096-.142 3.34-.008.058-.024.115-.042.184a.105.105 0 01-.101.078H86.154a.241.241 0 00-.226.32c.213.611.596 1.097 1.17 1.485.827.559 1.81.83 3.007.83.226 0 .467-.009.716-.029 1.485-.111 2.834-.558 4.015-1.33a.097.097 0 01.05-.015c.03 0 .059.014.079.037l3.105 3.498c.02.022.03.05.027.078a.105.105 0 01-.037.072 10.998 10.998 0 01-2.246 1.47c-1.838.919-3.816 1.365-6.047 1.365zM89.45 21.62c-.21 0-.431.012-.674.037-1.618.161-2.718 1.218-2.87 2.76a.24.24 0 00.239.265h6.34a.236.236 0 00.171-.073.239.239 0 00.07-.174c-.03-1.126-.684-2.091-1.702-2.522-.468-.197-.982-.293-1.574-.293zM127.27 18.229h-5.384a.622.622 0 00-.621.622v15.86c0 .344.278.623.621.623h5.384a.622.622 0 00.621-.623v-15.86a.622.622 0 00-.621-.622zM124.567 15.75c-1.359-.048-2.236-.498-2.842-1.457-.539-.854-.648-2.054-.278-3.058.371-1.005 1.169-1.686 2.245-1.919.311-.067.612-.1.897-.1.879 0 1.638.321 2.255.954.835.855 1.101 1.987.769 3.273-.296 1.145-1.05 1.882-2.247 2.19-.216.056-.441.077-.621.096-.066.007-.128.013-.178.02z" fill="#16221F"></path></svg>